<?xml version="1.0" standalone="no"?>
<!DOCTYPE svg PUBLIC "-//W3C//DTD SVG 20010904//EN"
 "http://www.w3.org/TR/2001/REC-SVG-20010904/DTD/svg10.dtd">
<svg version="1.0" xmlns="http://www.w3.org/2000/svg"
 width="1080.000000pt" height="1080.000000pt" viewBox="0 0 1080.000000 1080.000000"
 preserveAspectRatio="xMidYMid meet">

<g transform="translate(0.000000,1080.000000) scale(0.100000,-0.100000)"
fill="#000000" stroke="none">
<path d="M7425 8494 c-14 -11 -16 -18 -7 -21 17 -7 17 -374 0 -391 -9 -9 -2
-12 33 -12 35 1 40 3 27 11 -15 8 -18 25 -18 109 0 89 2 102 22 122 20 20 22
20 35 3 9 -13 13 -51 13 -121 0 -88 -3 -105 -17 -113 -14 -8 -9 -10 27 -11 34
0 41 3 32 12 -7 7 -12 44 -13 92 -1 113 -11 167 -32 180 -15 9 -22 7 -37 -11
-10 -13 -21 -23 -24 -23 -3 0 -6 43 -6 95 0 52 -3 95 -7 95 -5 0 -17 -8 -28
-16z"/>
<path d="M8659 8490 c-20 -16 -21 -19 -6 -20 14 0 17 -10 17 -60 l0 -59 -28 5
c-49 10 -82 -54 -82 -157 0 -94 45 -162 85 -129 21 18 18 28 -7 32 -32 4 -48
43 -48 120 0 81 12 118 39 118 34 0 42 -33 40 -155 -1 -64 0 -117 2 -119 2 -3
15 4 29 15 21 16 23 20 10 29 -12 8 -15 42 -15 205 0 107 -3 195 -6 195 -4 0
-17 -9 -30 -20z"/>
<path d="M10082 8486 c2 -15 8 -26 13 -26 15 0 12 43 -3 48 -10 3 -13 -4 -10
-22z"/>
<path d="M10325 8494 c-17 -13 -18 -16 -5 -24 21 -13 22 -358 1 -383 -12 -15
-9 -17 30 -17 35 1 40 3 27 11 -15 8 -18 23 -17 77 l1 67 28 -60 c16 -33 27
-68 24 -77 -4 -15 1 -18 32 -18 35 0 36 1 21 18 -9 10 -30 48 -47 85 -30 66
-30 68 -14 100 9 17 30 44 47 59 l29 28 -37 0 c-31 0 -36 -3 -30 -19 4 -13 -4
-35 -22 -62 l-28 -43 -3 137 c-1 75 -6 137 -10 137 -4 0 -16 -7 -27 -16z"/>
<path d="M10515 8494 c-14 -11 -16 -18 -7 -21 17 -7 17 -374 0 -391 -9 -9 -3
-12 27 -12 30 0 36 3 27 12 -9 9 -12 72 -12 220 0 114 -3 208 -7 208 -5 0 -17
-8 -28 -16z"/>
<path d="M7352 8425 c-1 -11 -12 -36 -23 -55 -14 -22 -17 -36 -10 -38 7 -2 11
-37 11 -97 0 -110 8 -155 28 -162 8 -4 21 2 28 12 18 24 18 41 1 26 -8 -6 -17
-8 -20 -4 -4 3 -7 55 -7 115 0 101 1 108 20 108 11 0 20 7 20 15 0 8 -9 15
-19 15 -16 0 -21 8 -24 43 -2 23 -4 33 -5 22z"/>
<path d="M8402 8425 c-1 -11 -12 -36 -23 -55 -14 -22 -17 -36 -10 -38 7 -2 11
-40 11 -107 0 -57 4 -115 10 -129 11 -31 35 -34 50 -7 14 27 13 36 -3 22 -8
-6 -17 -8 -20 -4 -4 3 -7 55 -7 115 0 101 1 108 20 108 11 0 20 7 20 15 0 8
-9 15 -19 15 -16 0 -21 8 -24 43 -2 23 -4 33 -5 22z"/>
<path d="M6568 8343 c-41 -47 -50 -161 -19 -230 37 -81 99 -59 122 44 15 64 1
153 -27 184 -21 24 -56 24 -76 2z m69 -43 c14 -42 17 -149 4 -183 -14 -36 -38
-41 -58 -11 -21 33 -31 181 -13 213 18 34 52 24 67 -19z"/>
<path d="M6715 8344 c-14 -11 -16 -18 -7 -21 9 -3 12 -50 12 -185 0 -160 -2
-182 -17 -194 -16 -12 -12 -13 32 -13 44 0 48 1 33 13 -14 10 -18 28 -18 76 0
53 2 61 15 50 21 -17 53 -3 72 33 25 46 25 193 0 230 -20 32 -52 35 -67 8 -14
-27 -13 -28 12 -27 32 1 48 -38 48 -119 0 -73 -17 -115 -45 -115 -26 0 -37 40
-35 133 3 161 3 161 -35 131z"/>
<path d="M6910 8318 c-47 -103 -7 -274 59 -253 18 5 57 82 47 92 -2 2 -7 -4
-10 -15 -8 -23 -29 -34 -50 -26 -17 7 -46 75 -46 109 0 24 3 25 55 25 52 0 55
1 55 25 0 15 -7 39 -15 55 -12 23 -22 30 -46 30 -26 0 -33 -6 -49 -42z m70 -4
c16 -40 13 -44 -30 -44 -44 0 -50 11 -24 48 20 29 42 28 54 -4z"/>
<path d="M7055 8344 c-14 -11 -16 -18 -7 -21 17 -6 17 -224 0 -241 -9 -9 -2
-12 33 -12 36 1 41 3 26 11 -16 10 -18 24 -17 117 3 179 4 176 -35 146z"/>
<path d="M7117 8342 c-22 -25 -21 -35 1 -23 34 18 42 -6 42 -119 0 -69 -4
-110 -12 -118 -9 -9 -4 -12 26 -12 29 0 36 3 28 13 -5 6 -12 62 -14 122 -6
143 -28 185 -71 137z"/>
<path d="M7620 8318 c-47 -103 -7 -274 59 -253 18 5 57 82 47 92 -2 2 -7 -4
-10 -15 -8 -23 -29 -34 -50 -26 -17 7 -46 75 -46 109 0 24 3 25 55 25 62 0 68
10 41 75 -13 29 -20 35 -46 35 -27 0 -34 -6 -50 -42z m70 -4 c16 -40 13 -44
-30 -44 -43 0 -46 5 -28 45 15 33 46 32 58 -1z"/>
<path d="M7855 8344 c-14 -11 -16 -18 -7 -21 17 -6 17 -224 0 -241 -9 -9 -2
-12 33 -12 35 1 41 3 26 11 -16 9 -18 24 -17 117 2 182 3 176 -35 146z"/>
<path d="M7917 8342 c-22 -25 -21 -35 1 -23 34 18 42 -6 42 -121 0 -91 -3
-108 -17 -117 -14 -8 -9 -10 25 -11 43 0 43 0 28 22 -12 17 -16 48 -16 126 0
133 -20 172 -63 124z"/>
<path d="M8048 8313 c-39 -89 -10 -248 47 -248 22 0 52 40 60 80 l5 30 -10
-27 c-28 -68 -84 -35 -97 57 l-6 45 57 0 c63 0 69 10 42 75 -13 29 -20 35 -46
35 -27 0 -34 -6 -52 -47z m72 8 c20 -38 13 -51 -30 -51 -43 0 -46 5 -28 45 13
30 43 33 58 6z"/>
<path d="M8180 8350 c0 -5 4 -10 9 -10 5 0 20 -28 34 -62 l24 -61 -24 -61
c-14 -34 -30 -67 -35 -73 -8 -10 -4 -13 17 -13 22 0 25 3 16 14 -9 10 -6 25
10 62 l22 49 19 -44 c16 -35 18 -49 9 -63 -10 -16 -7 -18 30 -18 39 0 41 1 26
18 -8 9 -27 46 -41 82 l-26 65 21 52 c12 29 25 53 30 53 5 0 9 5 9 10 0 6 -12
10 -26 10 -20 0 -25 -4 -20 -17 4 -9 1 -32 -5 -52 l-12 -36 -13 30 c-8 17 -11
40 -9 53 5 20 1 22 -30 22 -19 0 -35 -4 -35 -10z"/>
<path d="M8777 8342 c-25 -28 -37 -69 -37 -133 0 -73 20 -125 55 -141 22 -10
28 -8 50 12 50 47 56 209 9 261 -21 24 -56 24 -77 1z m71 -47 c20 -59 12 -183
-12 -201 -24 -17 -34 -10 -52 32 -16 39 -19 167 -3 195 18 34 52 20 67 -26z"/>
<path d="M8957 8342 c-25 -28 -37 -69 -37 -133 0 -73 20 -125 55 -141 22 -10
28 -8 50 12 50 47 56 209 9 261 -21 24 -56 24 -77 1z m71 -47 c20 -59 12 -183
-12 -201 -24 -17 -34 -10 -52 32 -16 39 -19 167 -3 195 18 34 52 20 67 -26z"/>
<path d="M9105 8344 c-17 -13 -18 -16 -5 -24 23 -14 28 -192 6 -225 l-16 -25
41 0 c41 0 42 1 25 19 -15 16 -17 37 -16 118 3 168 3 166 -35 137z"/>
<path d="M9160 8341 c-12 -24 -13 -34 -1 -26 5 3 12 1 16 -5 12 -20 25 -10 25
20 0 35 -23 41 -40 11z"/>
<path d="M9332 8348 c-17 -23 -24 -57 -13 -75 8 -15 10 -16 15 -3 3 8 6 26 8
40 2 17 10 26 25 28 18 3 23 -3 29 -33 6 -33 3 -39 -40 -78 -42 -39 -46 -48
-46 -89 0 -32 6 -50 19 -62 19 -17 20 -17 38 3 22 27 29 26 37 -1 l6 -23 21
25 c19 22 19 25 5 28 -13 3 -16 20 -16 108 0 58 -5 114 -10 125 -12 22 -62 26
-78 7z m48 -232 c-21 -21 -21 -21 -36 -1 -21 28 -10 74 23 104 l28 24 3 -53
c3 -44 -1 -57 -18 -74z"/>
<path d="M9492 8348 c-33 -42 -21 -111 28 -163 36 -39 44 -66 26 -91 -20 -25
-47 -10 -63 37 l-12 34 0 -46 c-1 -44 0 -47 31 -53 39 -8 65 13 74 60 8 45 -3
72 -47 117 -39 38 -49 73 -28 94 17 17 39 4 55 -31 l13 -31 1 43 c0 41 -1 42
-34 42 -18 0 -38 -6 -44 -12z"/>
<path d="M9736 8341 c-53 -58 -46 -256 10 -278 12 -4 25 3 41 23 l23 29 0 -74
c0 -55 -4 -79 -17 -93 -15 -17 -14 -18 25 -18 40 0 57 13 30 23 -10 3 -13 53
-13 203 l0 200 -41 2 c-29 1 -46 -4 -58 -17z m64 -20 c5 -11 10 -58 10 -104 0
-89 -10 -112 -47 -105 -39 7 -55 148 -23 207 14 26 46 27 60 2z"/>
<path d="M9870 8350 c0 -5 4 -10 9 -10 5 0 11 -56 12 -125 3 -96 8 -128 20
-140 18 -19 46 -11 54 16 9 27 25 23 25 -6 0 -25 1 -25 25 -9 22 15 38 43 16
30 -16 -10 -21 24 -21 140 l0 114 -25 0 c-27 0 -34 -15 -10 -24 24 -9 21 -186
-3 -217 -12 -14 -25 -20 -35 -16 -15 5 -17 24 -17 132 l0 125 -25 0 c-14 0
-25 -4 -25 -10z"/>
<path d="M10075 8344 c-14 -11 -16 -18 -7 -21 17 -6 17 -224 0 -241 -9 -9 -3
-12 27 -12 30 0 36 3 27 12 -8 8 -12 55 -12 145 0 73 -3 133 -7 133 -5 0 -17
-8 -28 -16z"/>
<path d="M10203 8352 c-42 -26 -58 -178 -25 -241 39 -78 77 -64 106 39 6 21 4
20 -13 -7 -25 -39 -45 -42 -67 -8 -22 33 -29 142 -12 175 20 36 50 32 60 -7
10 -39 28 -44 28 -7 0 53 -38 81 -77 56z"/>
<path d="M10590 8357 c0 -2 6 -17 14 -33 7 -16 26 -78 41 -139 25 -97 26 -115
16 -153 -10 -36 -16 -43 -34 -40 -18 2 -22 -2 -22 -26 0 -16 5 -31 12 -33 23
-8 42 43 83 217 22 96 45 179 50 184 17 17 11 26 -15 26 -24 0 -35 -15 -15
-22 8 -3 -23 -174 -33 -185 -5 -4 -47 149 -47 171 0 9 5 16 10 16 6 0 10 5 10
10 0 6 -16 10 -35 10 -19 0 -35 -2 -35 -3z"/>
<path d="M7584 7755 c-8 -20 3 -48 16 -40 13 8 13 55 0 55 -6 0 -13 -7 -16
-15z"/>
<path d="M7665 7754 c-14 -11 -16 -18 -7 -21 9 -4 12 -52 12 -194 l0 -189 25
-16 c33 -22 67 -8 92 38 24 47 25 183 0 221 -21 33 -49 35 -70 5 -15 -22 -16
-17 -16 75 -1 53 -4 97 -8 97 -5 0 -17 -8 -28 -16z m102 -204 c16 -32 17 -141
1 -175 -9 -20 -18 -25 -37 -23 -26 3 -26 4 -29 102 -3 101 6 130 37 124 8 -2
21 -14 28 -28z"/>
<path d="M7855 7754 c-14 -11 -16 -18 -7 -21 17 -7 17 -374 0 -391 -9 -9 -2
-12 33 -12 35 1 40 3 27 11 -16 9 -18 31 -18 219 0 116 -3 210 -7 210 -5 0
-17 -8 -28 -16z"/>
<path d="M8684 7754 c-13 -11 -15 -17 -6 -20 7 -4 12 -27 12 -65 l0 -58 -28 5
c-19 4 -32 0 -43 -13 -76 -87 -28 -340 51 -268 16 14 19 15 22 1 2 -13 7 -12
28 5 17 14 21 22 13 26 -10 3 -13 54 -13 204 0 109 -4 199 -8 199 -5 0 -17 -7
-28 -16z m-4 -173 c11 -21 14 -179 4 -205 -9 -23 -40 -20 -58 6 -18 26 -22
151 -6 192 11 31 45 35 60 7z"/>
<path d="M9312 7685 c-1 -11 -12 -36 -23 -55 -14 -22 -17 -36 -10 -38 7 -2 11
-33 11 -81 0 -108 10 -172 28 -179 15 -5 42 22 42 42 0 6 -4 5 -9 -3 -21 -33
-31 3 -31 110 0 102 1 109 20 109 11 0 20 7 20 15 0 8 -9 15 -19 15 -16 0 -21
8 -24 43 -2 23 -4 33 -5 22z"/>
<path d="M9662 7685 c-1 -11 -12 -36 -23 -55 -14 -22 -17 -36 -10 -38 7 -2 11
-40 11 -107 0 -57 4 -115 10 -129 11 -31 35 -34 50 -7 14 27 13 36 -3 22 -8
-6 -17 -8 -20 -4 -4 3 -7 55 -7 115 0 101 1 108 20 108 11 0 20 7 20 15 0 8
-9 15 -19 15 -16 0 -21 8 -24 43 -2 23 -4 33 -5 22z"/>
<path d="M6544 7585 c-10 -25 -12 -41 -5 -53 8 -14 10 -15 15 -2 3 8 6 26 8
40 2 17 10 26 25 28 18 3 23 -3 29 -33 6 -33 3 -39 -40 -78 -40 -38 -46 -49
-46 -84 0 -25 7 -50 18 -63 l19 -23 21 21 c27 27 28 27 36 0 l6 -23 21 24 c18
22 18 26 5 33 -13 7 -16 29 -16 109 0 116 -8 139 -51 139 -25 0 -33 -6 -45
-35z m57 -209 c-23 -22 -38 -15 -41 19 -4 41 1 57 28 83 l27 27 3 -54 c3 -44
-1 -58 -17 -75z"/>
<path d="M6712 7608 c-5 -7 -13 -27 -17 -45 -7 -37 17 -98 45 -113 27 -14 44
-64 30 -89 -21 -40 -51 -23 -68 39 l-10 35 -1 -51 c-1 -50 0 -52 32 -58 27 -6
36 -2 55 19 39 46 25 111 -37 168 -34 31 -40 67 -16 87 20 17 42 -1 54 -44 9
-30 9 -29 10 17 1 47 1 47 -33 47 -18 0 -38 -6 -44 -12z"/>
<path d="M6920 7600 c-20 -16 -22 -20 -7 -20 16 0 17 -15 17 -181 0 -161 -2
-183 -17 -195 -16 -12 -13 -13 25 -14 23 0 42 5 42 10 0 6 -4 10 -10 10 -6 0
-10 29 -10 66 0 57 2 65 15 54 21 -17 53 -3 72 33 25 46 25 193 0 230 -20 32
-52 35 -67 8 -14 -28 -13 -33 9 -26 29 9 44 -20 48 -98 5 -77 -7 -124 -33
-134 -33 -12 -45 25 -44 127 3 168 4 164 -40 130z"/>
<path d="M7131 7594 c-54 -69 -33 -249 31 -270 60 -19 110 129 77 227 -24 72
-71 90 -108 43z m77 -44 c19 -64 12 -178 -12 -196 -24 -17 -34 -10 -52 32 -16
39 -19 167 -3 195 19 35 51 20 67 -31z"/>
<path d="M7303 7608 c-6 -7 -14 -27 -18 -45 -7 -37 17 -98 45 -113 27 -14 44
-64 30 -89 -21 -40 -51 -23 -68 39 l-10 35 -1 -51 c-1 -50 0 -52 32 -58 27 -6
36 -2 55 19 39 46 25 111 -37 168 -34 31 -40 67 -16 87 20 17 42 -1 54 -44 9
-30 9 -30 10 14 1 45 0 46 -33 48 -18 1 -38 -3 -43 -10z"/>
<path d="M7443 7608 c-6 -7 -14 -27 -18 -45 -7 -37 17 -98 45 -113 27 -14 44
-64 30 -89 -21 -40 -56 -19 -70 42 -7 29 -8 27 -9 -19 -1 -50 0 -52 32 -58 27
-6 36 -2 55 19 39 46 25 110 -37 169 -34 32 -40 66 -16 86 20 17 42 -1 54 -44
9 -30 9 -30 10 14 1 45 0 46 -33 48 -18 1 -38 -3 -43 -10z"/>
<path d="M7575 7604 c-14 -11 -16 -18 -7 -21 17 -6 17 -224 0 -241 -9 -9 -3
-12 27 -12 30 0 36 3 27 12 -8 8 -12 55 -12 145 0 73 -3 133 -7 133 -5 0 -17
-8 -28 -16z"/>
<path d="M7964 7588 c-9 -18 -19 -59 -21 -93 -12 -149 69 -235 113 -119 9 24
15 47 12 50 -3 3 -8 -6 -12 -19 -6 -27 -28 -40 -50 -31 -17 7 -46 75 -46 109
0 24 3 25 55 25 62 0 68 10 41 75 -12 29 -20 35 -45 35 -24 0 -34 -7 -47 -32z
m66 -7 c20 -38 13 -51 -30 -51 -44 0 -50 11 -24 48 19 27 40 28 54 3z"/>
<path d="M8221 7594 c-37 -47 -41 -185 -6 -238 61 -92 146 33 117 172 -6 30
-19 63 -28 73 -24 27 -59 23 -83 -7z m75 -34 c7 -19 13 -68 13 -107 1 -61 -2
-76 -20 -94 -26 -26 -44 -13 -59 40 -13 48 -13 157 1 182 16 31 50 20 65 -21z"/>
<path d="M8375 7604 c-14 -11 -16 -18 -7 -21 17 -6 17 -224 0 -241 -9 -9 -2
-12 32 -12 41 0 42 1 27 18 -24 26 -24 189 -1 218 11 13 17 15 20 7 10 -24 24
-13 24 17 0 36 -21 40 -43 8 l-16 -23 0 23 c-1 26 -9 27 -36 6z"/>
<path d="M8796 7601 c-23 -25 -36 -76 -35 -136 0 -68 19 -116 51 -134 25 -14
29 -14 51 8 57 52 61 203 9 264 -20 22 -55 22 -76 -2z m72 -51 c19 -64 12
-178 -12 -196 -24 -17 -34 -10 -52 32 -16 39 -19 167 -3 195 19 35 51 20 67
-31z"/>
<path d="M8945 7604 c-14 -11 -16 -18 -7 -21 17 -6 17 -224 0 -241 -9 -9 -2
-12 33 -12 36 1 41 3 26 11 -16 10 -18 24 -17 117 3 179 4 176 -35 146z"/>
<path d="M9007 7602 c-22 -25 -21 -35 1 -23 34 18 42 -6 42 -119 0 -69 -4
-110 -12 -118 -9 -9 -4 -12 26 -12 29 0 36 3 28 13 -5 6 -12 62 -14 122 -6
143 -28 185 -71 137z"/>
<path d="M9136 7589 c-14 -32 -10 -77 5 -62 4 4 9 21 11 38 3 33 34 47 49 23
19 -30 9 -61 -36 -102 -39 -37 -45 -48 -45 -83 0 -25 7 -50 18 -63 l19 -23 21
21 c27 27 28 27 36 0 l6 -23 21 25 c19 22 19 25 5 28 -14 3 -16 20 -16 116 0
122 -5 136 -52 136 -23 0 -32 -7 -42 -31z m74 -147 c0 -37 -5 -54 -21 -68 -20
-18 -21 -18 -36 1 -17 24 -11 70 14 97 29 32 43 22 43 -30z"/>
<path d="M9398 7573 c-39 -89 -10 -248 47 -248 22 0 52 40 60 80 l5 30 -10
-27 c-28 -68 -84 -35 -97 57 l-6 45 57 0 c63 0 69 10 42 75 -13 29 -20 35 -46
35 -27 0 -34 -6 -52 -47z m72 8 c20 -38 13 -51 -30 -51 -43 0 -46 5 -28 45 13
30 43 33 58 6z"/>
<path d="M9767 7602 c-25 -28 -37 -69 -37 -133 0 -73 20 -125 55 -141 22 -10
28 -8 50 12 50 47 56 209 9 261 -21 24 -56 24 -77 1z m71 -47 c20 -59 12 -183
-12 -201 -24 -17 -34 -10 -52 32 -16 39 -19 167 -3 195 18 34 52 20 67 -26z"/>
<path d="M4900 6481 c-21 -17 -22 -20 -7 -21 16 0 17 -16 17 -188 0 -133 -4
-192 -12 -200 -9 -9 -4 -12 26 -12 34 0 36 1 22 16 -12 12 -16 37 -16 110 0
82 3 97 21 115 41 41 56 9 58 -121 1 -54 -4 -82 -15 -98 -15 -22 -14 -22 22
-22 28 0 34 3 26 13 -5 6 -12 64 -14 127 -3 63 -9 123 -13 133 -10 23 -42 22
-55 -3 -21 -39 -29 -19 -32 76 l-3 96 -25 -21z"/>
<path d="M5762 6475 c0 -16 2 -22 5 -12 2 9 2 23 0 30 -3 6 -5 -1 -5 -18z"/>
<path d="M5997 6483 c-13 -16 -13 -20 -1 -31 8 -8 14 -32 14 -61 l0 -48 -36 1
c-33 1 -39 -3 -57 -39 -55 -104 2 -313 64 -237 20 26 29 28 29 7 0 -19 14 -19
29 -1 8 10 9 16 1 21 -6 4 -10 77 -10 206 0 109 -4 199 -8 199 -5 0 -16 -8
-25 -17z m3 -191 c16 -59 13 -172 -6 -193 -37 -41 -74 18 -74 116 0 116 54
168 80 77z"/>
<path d="M6100 6469 c0 -17 4 -28 10 -24 6 3 10 17 10 31 0 13 -4 24 -10 24
-5 0 -10 -14 -10 -31z"/>
<path d="M6875 6480 c-10 -11 -13 -20 -7 -20 8 0 12 -21 12 -58 l0 -57 -31 0
c-46 0 -73 -55 -73 -150 -1 -105 40 -169 83 -130 17 15 20 15 23 0 3 -14 5
-14 26 1 17 12 21 19 13 27 -7 7 -11 80 -11 209 0 109 -4 198 -8 198 -5 0 -17
-9 -27 -20z m-11 -156 c13 -12 16 -38 16 -118 0 -103 -8 -130 -37 -119 -53 20
-60 211 -9 245 14 10 12 10 30 -8z"/>
<path d="M7732 6475 c0 -16 2 -22 5 -12 2 9 2 23 0 30 -3 6 -5 -1 -5 -18z"/>
<path d="M7787 6488 c-6 -19 4 -49 14 -42 12 7 12 54 0 54 -5 0 -11 -6 -14
-12z"/>
<path d="M8250 6469 c0 -17 4 -28 10 -24 6 3 10 17 10 31 0 13 -4 24 -10 24
-5 0 -10 -14 -10 -31z"/>
<path d="M9146 6481 c-15 -16 -15 -19 -1 -24 13 -5 15 -34 15 -191 0 -185 0
-186 24 -201 20 -13 29 -14 46 -5 54 29 79 177 42 250 -20 41 -57 52 -67 21
-14 -47 -25 -16 -25 74 0 52 -4 95 -8 95 -5 0 -17 -8 -26 -19z m101 -197 c24
-37 24 -151 0 -188 -20 -30 -30 -32 -51 -10 -20 19 -23 193 -4 212 19 19 36
14 55 -14z"/>
<path d="M5855 6450 c-4 -23 -5 -43 -2 -46 2 -3 7 14 11 37 4 23 5 44 2 46 -2
2 -7 -14 -11 -37z"/>
<path d="M8651 6474 c0 -11 3 -14 6 -6 3 7 2 16 -1 19 -3 4 -6 -2 -5 -13z"/>
<path d="M9557 6467 c-25 -39 -31 -98 -14 -139 8 -19 38 -61 66 -92 41 -45 51
-63 51 -91 0 -34 -27 -75 -49 -75 -20 0 -60 46 -70 80 -9 33 -9 31 -10 -27 -1
-50 2 -61 13 -57 8 3 24 0 36 -6 58 -31 105 26 98 121 -4 53 -8 61 -57 115
-59 64 -72 91 -64 125 18 72 79 61 103 -17 7 -25 8 -23 9 21 1 41 -2 51 -16
52 -10 1 -32 5 -49 8 -25 6 -33 3 -47 -18z"/>
<path d="M10547 6462 c-14 -15 -34 -47 -43 -72 -21 -55 -24 -181 -5 -233 30
-87 97 -125 160 -93 l31 17 0 89 c0 67 4 92 16 104 14 15 11 16 -33 16 -37 -1
-44 -3 -30 -11 14 -8 17 -25 17 -100 0 -86 -1 -90 -25 -101 -34 -15 -69 4 -91
51 -22 46 -30 185 -15 248 28 111 121 127 151 27 7 -26 8 -24 9 19 1 40 -2 47
-18 47 -11 0 -23 5 -26 10 -13 21 -71 11 -98 -18z"/>
<path d="M9333 6469 c15 -9 17 -29 17 -191 0 -155 -2 -184 -17 -200 -15 -17
-14 -18 33 -18 38 1 45 3 32 11 -15 8 -18 25 -18 104 l0 95 30 0 c17 0 33 -7
39 -17 8 -14 10 -7 10 32 0 28 -3 43 -6 35 -8 -20 -24 -30 -50 -30 -22 0 -23
3 -23 86 l0 85 42 -3 c34 -2 45 -8 55 -28 12 -24 13 -24 13 13 l0 37 -87 0
c-65 -1 -83 -3 -70 -11z"/>
<path d="M9733 6469 c15 -9 17 -30 17 -199 0 -169 -2 -190 -17 -199 -13 -8 7
-10 75 -11 81 0 92 2 92 18 0 9 3 28 5 42 5 22 4 22 -4 5 -15 -34 -38 -46 -78
-43 l-38 3 -3 93 -3 92 40 0 c28 0 43 -5 50 -17 8 -14 10 -9 11 26 0 42 -1 43
-18 28 -10 -10 -33 -17 -50 -17 l-32 0 0 85 0 85 49 0 c45 0 50 -3 59 -27 10
-28 10 -27 11 10 l1 37 -92 0 c-68 -1 -88 -3 -75 -11z"/>
<path d="M10113 6469 c15 -9 17 -29 17 -191 0 -155 -2 -184 -17 -200 -15 -17
-14 -18 33 -18 38 1 45 3 32 11 -15 8 -18 25 -18 104 l0 95 30 0 c17 0 33 -7
39 -17 8 -14 10 -9 11 25 0 40 -1 42 -16 28 -8 -9 -26 -16 -40 -16 -24 0 -24
2 -24 86 l0 85 42 -3 c34 -2 45 -8 55 -28 12 -24 13 -24 13 13 l0 37 -87 0
c-65 -1 -83 -3 -70 -11z"/>
<path d="M10320 6461 c0 -11 -3 -28 -6 -38 -6 -15 -4 -16 7 -5 20 18 99 16 99
-4 0 -18 -58 -333 -65 -351 -2 -7 -1 -13 4 -13 5 0 19 53 31 118 26 141 49
259 55 290 5 21 3 22 -60 22 -57 0 -65 -2 -65 -19z"/>
<path d="M8642 6425 c0 -16 2 -22 5 -12 2 9 2 23 0 30 -3 6 -5 -1 -5 -18z"/>
<path d="M5752 6420 c0 -14 2 -19 5 -12 2 6 2 18 0 25 -3 6 -5 1 -5 -13z"/>
<path d="M7721 6424 c0 -11 3 -14 6 -6 3 7 2 16 -1 19 -3 4 -6 -2 -5 -13z"/>
<path d="M5102 6399 c-1 -9 -11 -28 -23 -43 -18 -23 -18 -27 -5 -32 13 -5 16
-26 16 -119 0 -62 3 -120 6 -129 8 -22 31 -20 43 3 9 15 7 18 -7 17 -15 -1
-17 12 -20 112 -3 107 -2 112 18 112 11 0 20 7 20 15 0 8 -9 15 -19 15 -15 0
-21 8 -24 33 -2 17 -5 25 -5 16z"/>
<path d="M5188 6371 c-12 -23 -14 -39 -8 -45 6 -6 10 -60 10 -122 0 -62 3
-119 6 -128 9 -23 31 -20 45 5 8 17 8 20 -1 14 -22 -14 -30 18 -30 123 0 96 2
104 20 109 25 7 27 21 3 19 -13 -1 -19 8 -23 30 l-5 31 -17 -36z"/>
<path d="M8352 6399 c-1 -9 -11 -28 -22 -42 -24 -30 -25 -37 -5 -37 12 0 15
-19 15 -114 0 -63 3 -121 6 -130 9 -23 31 -20 45 5 8 17 8 20 -1 14 -22 -14
-30 18 -30 123 0 95 1 102 20 102 11 0 20 7 20 15 0 8 -9 15 -19 15 -15 0 -21
8 -24 33 -2 17 -5 25 -5 16z"/>
<path d="M5742 6370 c0 -14 2 -19 5 -12 2 6 2 18 0 25 -3 6 -5 1 -5 -13z"/>
<path d="M5836 6349 c-4 -23 -5 -44 -2 -46 2 -2 7 14 11 37 4 23 5 43 2 46 -2
3 -7 -14 -11 -37z"/>
<path d="M7712 6370 c0 -14 2 -19 5 -12 2 6 2 18 0 25 -3 6 -5 1 -5 -13z"/>
<path d="M8632 6370 c0 -14 2 -19 5 -12 2 6 2 18 0 25 -3 6 -5 1 -5 -13z"/>
<path d="M5281 6334 c-21 -15 -21 -18 -7 -26 14 -8 16 -33 16 -180 0 -135 -3
-175 -14 -187 -13 -14 -11 -16 20 -16 34 0 43 8 24 20 -12 7 -14 125 -2 125 4
0 13 -5 18 -10 16 -16 43 -1 61 34 24 45 29 162 10 209 -22 51 -44 58 -73 22
l-22 -28 -4 27 c-3 26 -4 26 -27 10z m95 -50 c21 -31 24 -157 5 -192 -14 -27
-47 -29 -61 -3 -5 11 -10 57 -10 102 0 63 4 87 17 101 22 24 29 23 49 -8z"/>
<path d="M5470 6325 c-20 -54 -12 -91 30 -140 41 -47 50 -81 28 -103 -19 -19
-36 -14 -52 16 l-15 27 -1 -31 c0 -27 4 -33 28 -37 21 -5 32 0 51 20 36 41 26
100 -28 158 -44 48 -48 61 -28 89 16 22 43 12 56 -22 9 -27 9 -26 10 8 1 34
-1 36 -34 38 -30 2 -37 -1 -45 -23z"/>
<path d="M5614 6335 c-8 -19 2 -45 16 -45 5 0 10 14 10 30 0 31 -16 41 -26 15z"/>
<path d="M6091 6334 c-21 -15 -21 -18 -7 -26 23 -13 24 -209 0 -232 -14 -15
-12 -16 22 -16 29 0 34 3 26 13 -7 8 -13 69 -14 145 l-3 132 -24 -16z"/>
<path d="M6190 6325 c-20 -54 -12 -91 30 -140 39 -45 46 -67 34 -99 -10 -25
-42 -19 -58 12 l-15 27 -1 -31 c0 -27 4 -33 28 -37 21 -5 32 0 51 20 36 41 26
100 -28 158 -44 48 -48 61 -28 89 11 15 17 16 35 7 11 -6 23 -21 25 -33 3 -15
5 -11 6 12 1 34 -1 36 -34 38 -30 2 -37 -1 -45 -23z"/>
<path d="M6344 6325 c-49 -76 -35 -247 23 -269 12 -5 25 1 40 19 24 28 33 59
11 37 -40 -40 -80 18 -80 113 0 74 14 107 45 103 15 -2 23 -12 27 -33 6 -36
26 -35 23 1 -4 56 -59 74 -89 29z"/>
<path d="M6511 6336 c-16 -19 -41 -102 -41 -135 0 -43 20 -99 45 -128 l23 -28
28 20 c15 12 34 39 41 60 20 56 13 157 -13 192 -24 32 -65 41 -83 19z m58 -20
c32 -38 32 -217 0 -237 -21 -13 -27 -11 -45 17 -21 31 -31 167 -15 207 11 30
41 36 60 13z"/>
<path d="M6659 6331 c-20 -17 -21 -20 -6 -21 15 0 17 -12 17 -115 0 -98 -2
-115 -17 -124 -14 -8 -9 -10 26 -11 42 0 43 1 27 19 -14 15 -16 38 -15 140 1
67 -1 124 -3 127 -3 2 -16 -4 -29 -15z"/>
<path d="M6712 6324 c-8 -16 -8 -23 -2 -19 6 4 17 2 24 -4 16 -14 29 9 20 34
-9 23 -29 18 -42 -11z"/>
<path d="M7071 6319 c-36 -58 -38 -166 -5 -230 20 -40 45 -45 71 -14 28 32 30
49 4 34 -44 -28 -72 18 -73 117 0 69 14 104 42 104 14 0 22 -10 28 -32 10 -38
28 -39 25 -2 -5 60 -61 74 -92 23z"/>
<path d="M7236 6329 c-8 -12 -21 -46 -27 -76 -16 -68 1 -150 37 -184 l24 -23
28 21 c15 11 33 37 40 59 19 54 10 158 -15 193 -26 34 -66 39 -87 10z m71 -29
c7 -14 13 -62 13 -111 0 -73 -3 -89 -20 -104 -25 -23 -45 -8 -60 44 -13 48
-13 157 1 182 14 27 50 21 66 -11z"/>
<path d="M7389 6331 c-20 -17 -21 -20 -6 -21 15 0 17 -12 17 -115 0 -98 -2
-115 -17 -124 -14 -8 -9 -10 25 -11 40 0 42 1 27 16 -13 13 -15 38 -14 140 1
69 -1 127 -3 130 -3 2 -16 -4 -29 -15z"/>
<path d="M7450 6330 c-9 -16 -8 -19 6 -13 32 12 44 -24 44 -128 0 -75 -4 -101
-16 -113 -14 -15 -12 -16 28 -16 34 1 39 3 26 11 -26 15 -26 197 0 229 26 32
48 17 56 -37 10 -75 7 -146 -8 -175 l-15 -28 37 0 c28 0 33 3 24 12 -8 8 -12
47 -12 108 0 158 -29 210 -78 143 l-21 -28 -10 28 c-12 32 -45 36 -61 7z"/>
<path d="M7777 6333 c-13 -16 -13 -20 -1 -31 21 -19 20 -205 -2 -226 -14 -15
-12 -16 22 -16 30 0 35 3 26 12 -8 8 -12 55 -12 145 0 73 -4 133 -8 133 -5 0
-16 -8 -25 -17z"/>
<path d="M7870 6331 c-21 -17 -22 -20 -7 -21 15 0 17 -12 17 -113 0 -75 -4
-117 -12 -125 -9 -9 -4 -12 26 -12 34 0 36 1 22 16 -12 12 -16 37 -16 110 0
80 3 97 20 114 29 29 47 16 54 -43 10 -89 7 -151 -10 -175 -15 -22 -14 -22 22
-22 28 0 34 3 26 13 -5 6 -12 64 -14 127 -3 63 -9 123 -13 133 -11 26 -40 21
-61 -10 l-18 -28 -6 29 -5 28 -25 -21z"/>
<path d="M8030 6344 c0 -3 6 -12 14 -20 8 -7 27 -68 42 -134 15 -66 31 -117
35 -113 12 13 22 76 11 69 -6 -3 -19 32 -33 86 -16 66 -19 93 -11 96 25 8 10
22 -23 22 -19 0 -35 -3 -35 -6z"/>
<path d="M8164 6334 c3 -9 6 -23 6 -32 0 -11 6 -6 15 12 19 36 19 36 -6 36
-15 0 -19 -4 -15 -16z"/>
<path d="M8236 6331 c-15 -16 -15 -19 -1 -24 22 -9 22 -209 -1 -231 -14 -15
-12 -16 22 -16 30 0 35 3 26 12 -8 8 -12 55 -12 145 0 73 -4 133 -8 133 -5 0
-17 -8 -26 -19z"/>
<path d="M8454 6325 c-48 -73 -34 -247 21 -268 24 -10 40 1 58 39 22 45 21 52
-1 24 -13 -16 -24 -21 -39 -16 -23 7 -53 71 -53 111 0 24 3 25 55 25 52 0 55
1 55 25 0 74 -62 112 -96 60z m54 -7 c7 -7 12 -22 12 -35 0 -20 -5 -23 -41
-23 -37 0 -40 2 -33 23 13 45 38 59 62 35z"/>
<path d="M8670 6341 c0 -5 7 -11 15 -15 12 -4 15 -27 15 -120 0 -96 3 -117 18
-136 20 -24 35 -21 52 10 8 15 7 17 -11 13 -33 -9 -39 13 -39 140 l0 117 -25
0 c-14 0 -25 -4 -25 -9z"/>
<path d="M8770 6341 c0 -6 5 -11 11 -11 7 0 10 -38 9 -112 -3 -182 -4 -171 26
-152 14 10 21 20 15 23 -6 4 -12 60 -13 131 -3 121 -4 125 -25 128 -13 2 -23
-1 -23 -7z"/>
<path d="M8870 6331 c-21 -17 -22 -20 -7 -21 15 0 17 -12 17 -113 0 -75 -4
-117 -12 -125 -9 -9 -4 -12 26 -12 34 0 36 1 22 16 -23 22 -23 190 0 222 8 12
21 22 29 22 25 0 35 -37 35 -134 0 -73 -4 -98 -16 -110 -14 -15 -12 -16 28
-16 34 1 39 3 26 11 -15 8 -18 25 -18 113 0 88 3 105 19 120 10 9 25 14 33 11
30 -12 39 -195 12 -233 -15 -22 -14 -22 22 -22 30 0 35 3 26 12 -8 8 -12 47
-12 108 0 158 -29 210 -78 143 l-21 -28 -10 28 c-6 16 -18 27 -30 27 -10 0
-27 -12 -37 -27 l-18 -28 -6 29 -5 28 -25 -21z"/>
<path d="M9970 6318 c-29 -47 -35 -125 -16 -192 25 -85 72 -98 101 -29 19 46
19 50 -3 23 -35 -43 -74 -7 -88 80 l-7 40 57 0 c53 0 56 1 56 25 0 79 -64 113
-100 53z m58 0 c7 -7 12 -22 12 -35 0 -20 -5 -23 -41 -23 -37 0 -40 2 -33 23
13 45 38 59 62 35z"/>
<path d="M7702 6320 c0 -14 2 -19 5 -12 2 6 2 18 0 25 -3 6 -5 1 -5 -13z"/>
<path d="M8622 6320 c0 -14 2 -19 5 -12 2 6 2 18 0 25 -3 6 -5 1 -5 -13z"/>
<path d="M5731 6314 c0 -11 3 -14 6 -6 3 7 2 16 -1 19 -3 4 -6 -2 -5 -13z"/>
<path d="M5715 6245 c-3 -26 -4 -49 -2 -51 3 -3 8 16 12 41 3 26 4 49 2 51 -3
3 -8 -16 -12 -41z"/>
<path d="M7692 6265 c0 -16 2 -22 5 -12 2 9 2 23 0 30 -3 6 -5 -1 -5 -18z"/>
<path d="M5821 6264 c0 -11 3 -14 6 -6 3 7 2 16 -1 19 -3 4 -6 -2 -5 -13z"/>
<path d="M8161 6264 c0 -11 3 -14 6 -6 3 7 2 16 -1 19 -3 4 -6 -2 -5 -13z"/>
<path d="M8611 6264 c0 -11 3 -14 6 -6 3 7 2 16 -1 19 -3 4 -6 -2 -5 -13z"/>
<path d="M5812 6215 c0 -16 2 -22 5 -12 2 9 2 23 0 30 -3 6 -5 -1 -5 -18z"/>
<path d="M8152 6220 c0 -14 2 -19 5 -12 2 6 2 18 0 25 -3 6 -5 1 -5 -13z"/>
<path d="M8595 6195 c-3 -26 -4 -49 -2 -51 3 -3 8 16 12 41 3 26 4 49 2 51 -3
3 -8 -16 -12 -41z"/>
<path d="M7682 6210 c0 -14 2 -19 5 -12 2 6 2 18 0 25 -3 6 -5 1 -5 -13z"/>
<path d="M8141 6174 c0 -11 3 -14 6 -6 3 7 2 16 -1 19 -3 4 -6 -2 -5 -13z"/>
<path d="M5702 6160 c0 -14 2 -19 5 -12 2 6 2 18 0 25 -3 6 -5 1 -5 -13z"/>
<path d="M5795 6135 c-3 -26 -4 -49 -2 -51 3 -3 8 16 12 41 3 26 4 49 2 51 -3
3 -8 -16 -12 -41z"/>
<path d="M7672 6160 c0 -14 2 -19 5 -12 2 6 2 18 0 25 -3 6 -5 1 -5 -13z"/>
<path d="M7662 6110 c0 -14 2 -19 5 -12 2 6 2 18 0 25 -3 6 -5 1 -5 -13z"/>
<path d="M8582 6110 c0 -14 2 -19 5 -12 2 6 2 18 0 25 -3 6 -5 1 -5 -13z"/>
<path d="M5615 6110 c-10 -16 4 -62 15 -55 13 8 13 52 1 60 -5 3 -13 0 -16 -5z"/>
<path d="M5691 6104 c0 -11 3 -14 6 -6 3 7 2 16 -1 19 -3 4 -6 -2 -5 -13z"/>
<path d="M6970 6091 c0 -17 4 -32 9 -36 12 -7 23 28 15 49 -10 26 -24 18 -24
-13z"/>
<path d="M7651 6064 c0 -11 3 -14 6 -6 3 7 2 16 -1 19 -3 4 -6 -2 -5 -13z"/>
<path d="M8571 6064 c0 -11 3 -14 6 -6 3 7 2 16 -1 19 -3 4 -6 -2 -5 -13z"/>
<path d="M4609 4469 c-77 -83 -77 -296 0 -376 67 -70 155 -15 182 115 13 64 6
155 -15 207 -37 88 -112 113 -167 54z m94 -7 c52 -58 48 -329 -6 -367 -51 -35
-85 38 -86 185 -1 152 42 238 92 182z"/>
<path d="M5744 4476 c-8 -31 3 -66 21 -66 8 0 17 9 20 21 9 29 -2 69 -20 69
-8 0 -17 -11 -21 -24z"/>
<path d="M6704 4476 c-8 -31 3 -66 21 -66 8 0 17 9 20 21 9 29 -2 69 -20 69
-8 0 -17 -11 -21 -24z"/>
<path d="M7423 4468 c-46 -35 -53 -47 -25 -44 15 1 17 -14 20 -159 3 -153 2
-161 -19 -177 -21 -18 -20 -18 42 -18 55 1 62 2 47 14 -15 11 -18 37 -20 215
l-3 202 -42 -33z"/>
<path d="M7587 4482 c-16 -18 -37 -65 -37 -85 0 -6 7 -1 16 11 22 31 43 27 59
-12 20 -47 6 -119 -43 -231 l-39 -90 64 -3 c36 -2 67 -1 69 1 3 2 7 29 10 58
4 42 3 50 -6 37 -7 -12 -24 -18 -45 -18 -19 0 -35 2 -35 4 0 2 17 39 37 82 32
68 37 89 38 150 0 57 -4 76 -19 93 -23 26 -48 27 -69 3z"/>
<path d="M7766 4476 c-27 -42 -39 -123 -34 -230 5 -108 26 -171 60 -182 25 -8
38 3 58 50 38 87 33 299 -9 356 -25 35 -54 37 -75 6z m55 -23 c12 -31 9 -347
-3 -358 -4 -4 -14 -5 -23 -2 -13 5 -15 34 -15 190 0 101 3 187 7 190 13 13 24
7 34 -20z"/>
<path d="M8274 4476 c-8 -31 3 -66 21 -66 8 0 17 9 20 21 9 29 -2 69 -20 69
-8 0 -17 -11 -21 -24z"/>
<path d="M4961 4454 c12 -41 7 -340 -5 -366 -7 -16 -3 -18 35 -18 33 0 40 3
31 12 -18 18 -16 209 3 234 13 16 16 17 25 4 14 -22 13 -223 -2 -238 -9 -9 -3
-12 30 -12 40 0 54 11 32 25 -6 4 -10 55 -10 121 0 149 -19 186 -70 132 l-20
-22 0 82 0 82 -29 0 c-29 0 -29 -1 -20 -36z"/>
<path d="M6310 4483 c8 -3 18 -11 22 -17 4 -6 8 -91 8 -188 0 -172 -1 -177
-22 -192 -21 -15 -19 -16 42 -16 56 1 63 2 48 14 -15 11 -18 29 -18 93 l0 81
35 6 c55 11 85 74 71 152 -12 61 -35 74 -123 73 -43 0 -71 -3 -63 -6z m114
-26 c14 -10 18 -27 18 -75 0 -63 -12 -92 -38 -92 -11 0 -14 20 -14 90 0 50 4
90 8 90 5 0 16 -6 26 -13z"/>
<path d="M8358 4478 c8 -8 12 -67 12 -198 0 -131 -4 -190 -12 -198 -9 -9 -1
-12 37 -12 38 0 46 3 37 12 -9 9 -12 69 -12 210 l0 198 -37 0 c-29 0 -34 -3
-25 -12z"/>
<path d="M8458 4478 c8 -8 12 -67 12 -198 0 -131 -4 -190 -12 -198 -9 -9 -1
-12 37 -12 38 0 46 3 37 12 -9 9 -12 69 -12 210 l0 198 -37 0 c-29 0 -34 -3
-25 -12z"/>
<path d="M4878 4439 c-4 -14 -19 -43 -33 -64 -15 -21 -22 -41 -17 -44 5 -3 11
-57 14 -118 3 -91 7 -116 21 -130 13 -13 21 -15 34 -7 21 13 29 36 11 32 -10
-2 -14 22 -16 110 -3 107 -2 112 18 112 11 0 20 7 20 15 0 8 -9 15 -19 15 -17
0 -20 8 -23 53 -2 41 -4 47 -10 26z"/>
<path d="M5185 4346 c-65 -99 -32 -306 44 -281 21 6 52 53 50 77 0 7 -4 3 -9
-9 -19 -48 -65 -11 -72 57 -3 35 -3 35 41 38 l43 3 -5 44 c-9 84 -59 122 -92
71z m53 -49 c3 -45 2 -47 -24 -47 -26 0 -26 1 -20 42 8 49 14 60 29 55 7 -2
13 -25 15 -50z"/>
<path d="M5398 4345 c-14 -30 -28 -33 -28 -5 0 16 -7 20 -30 20 -27 0 -30 -2
-20 -19 5 -11 10 -68 10 -126 0 -58 -5 -115 -10 -126 -10 -17 -7 -19 30 -19
39 0 40 1 29 21 -7 14 -10 55 -7 111 4 91 17 123 40 100 16 -16 25 -15 32 4 9
23 -4 64 -20 64 -8 0 -20 -11 -26 -25z"/>
<path d="M5849 4353 c-8 -9 -14 -39 -14 -68 0 -44 6 -61 33 -98 37 -53 43 -97
12 -97 -11 0 -20 1 -20 3 0 1 -7 20 -15 42 l-14 40 -1 -51 c0 -34 4 -51 13
-52 6 0 21 -3 32 -7 34 -10 60 28 60 89 0 44 -6 59 -37 103 -40 54 -47 78 -24
86 16 6 31 -7 45 -44 9 -21 10 -19 10 21 1 44 0 45 -33 47 -21 2 -39 -3 -47
-14z"/>
<path d="M6011 4357 c-72 -87 -42 -318 38 -292 21 6 52 53 50 77 0 7 -5 3 -11
-9 -6 -13 -17 -23 -24 -23 -19 0 -42 40 -46 80 -3 35 -3 35 41 38 l43 3 -5 44
c-8 76 -54 120 -86 82z m47 -60 c3 -45 2 -47 -24 -47 -26 0 -26 1 -20 42 8 49
14 60 29 55 7 -2 13 -25 15 -50z"/>
<path d="M6613 4338 l-18 -33 -3 28 c-3 23 -8 27 -33 27 -26 0 -29 -2 -19 -19
5 -11 10 -68 10 -126 0 -58 -5 -115 -10 -126 -10 -17 -7 -19 31 -19 36 0 40 2
29 15 -9 10 -11 44 -8 110 4 101 15 128 43 105 17 -14 22 -12 25 10 9 64 -18
80 -47 28z"/>
<path d="M6874 4353 c-13 -13 -19 -14 -22 -5 -2 6 -17 12 -32 12 -28 0 -28 -1
-19 -29 12 -33 8 -217 -5 -243 -7 -16 -3 -18 35 -18 33 0 40 3 31 12 -18 18
-16 209 2 234 29 38 38 4 34 -125 l-3 -121 40 0 c30 0 36 3 27 12 -8 8 -12 49
-12 119 0 85 3 109 16 120 13 10 17 10 25 -2 14 -22 11 -223 -3 -237 -9 -9 -3
-12 30 -12 40 0 54 11 32 25 -6 4 -10 55 -10 121 0 64 -5 124 -10 135 -14 26
-45 24 -64 -3 l-16 -22 -16 22 c-18 27 -37 28 -60 5z"/>
<path d="M7131 4357 c-72 -88 -42 -318 39 -292 20 6 57 71 46 82 -2 2 -7 -5
-11 -16 -16 -51 -60 -9 -67 64 -3 29 -1 30 41 33 l44 3 -7 46 c-10 78 -53 118
-85 80z m47 -60 c3 -45 2 -47 -22 -47 -21 0 -26 5 -26 24 0 37 18 78 33 74 6
-3 13 -25 15 -51z"/>
<path d="M5468 4343 c6 -10 22 -79 38 -153 l28 -135 18 75 c18 80 22 119 8 85
-7 -18 -8 -17 -14 10 -4 17 -11 48 -16 70 -6 26 -5 44 2 52 8 10 2 13 -31 13
-37 0 -41 -2 -33 -17z"/>
<path d="M5566 4343 c5 -10 7 -38 6 -63 -1 -26 2 -40 7 -32 5 8 14 -16 25 -65
31 -136 30 -135 55 -9 13 64 22 119 19 122 -3 3 -9 -16 -12 -41 -4 -25 -11
-45 -15 -45 -14 0 -32 122 -20 137 9 10 3 13 -31 13 -37 0 -41 -2 -34 -17z"/>
<path d="M5673 4335 c7 -13 14 -19 16 -12 2 7 8 18 14 25 7 9 3 12 -16 12 -23
0 -24 -2 -14 -25z"/>
<path d="M5728 4348 c8 -8 12 -52 12 -133 0 -81 -4 -125 -12 -133 -9 -9 -1
-12 37 -12 38 0 46 3 37 12 -8 8 -12 55 -12 145 l0 133 -37 0 c-29 0 -34 -3
-25 -12z"/>
<path d="M6688 4348 c8 -8 12 -52 12 -133 0 -81 -4 -125 -12 -133 -9 -9 -1
-12 37 -12 38 0 46 3 37 12 -8 8 -12 55 -12 145 l0 133 -37 0 c-29 0 -34 -3
-25 -12z"/>
<path d="M7995 4343 c9 -20 37 -138 56 -228 l12 -60 18 80 c19 85 23 124 9 90
-9 -24 -14 -15 -29 60 -6 34 -6 54 1 62 8 10 1 13 -32 13 -36 0 -41 -2 -35
-17z"/>
<path d="M8096 4343 c4 -10 7 -35 6 -56 -1 -21 2 -35 7 -32 5 3 15 -21 21 -52
21 -105 28 -135 33 -139 9 -10 28 128 19 139 -5 7 -15 41 -21 76 -10 52 -10
65 1 72 8 6 -3 9 -31 9 -37 0 -42 -2 -35 -17z"/>
<path d="M8198 4347 c6 -7 9 -31 7 -53 l-5 -39 10 39 c6 22 15 45 21 53 9 10
6 13 -16 13 -22 0 -25 -3 -17 -13z"/>
<path d="M8258 4348 c8 -8 12 -52 12 -133 0 -81 -4 -125 -12 -133 -9 -9 -1
-12 37 -12 38 0 46 3 37 12 -8 8 -12 55 -12 145 l0 133 -37 0 c-29 0 -34 -3
-25 -12z"/>
<path d="M7240 4215 l0 -35 50 0 50 0 0 35 0 35 -50 0 -50 0 0 -35z"/>
<path d="M8192 4230 c0 -14 2 -19 5 -12 2 6 2 18 0 25 -3 6 -5 1 -5 -13z"/>
<path d="M6143 4159 c-7 -7 -13 -28 -13 -47 0 -25 5 -35 20 -39 26 -7 26 -39
-1 -83 -18 -28 -18 -32 -4 -20 44 36 59 140 28 179 -15 18 -20 20 -30 10z"/>
<path d="M4445 3740 c-10 -11 -20 -42 -23 -70 -2 -27 -8 -50 -13 -50 -5 0 -9
-7 -9 -15 0 -8 5 -15 10 -15 15 0 13 -233 -2 -248 -9 -9 -1 -12 37 -12 46 0
47 1 32 18 -24 26 -25 242 -2 242 20 0 19 26 -1 34 -19 7 -16 107 4 114 7 2
12 -6 12 -20 0 -31 9 -41 25 -28 9 8 14 6 19 -5 9 -23 35 -18 42 9 12 49 -15
83 -43 55 -8 -8 -13 -8 -17 0 -11 18 -51 13 -71 -9z"/>
<path d="M7904 3736 c-8 -31 3 -66 21 -66 8 0 17 9 20 21 9 29 -2 69 -20 69
-8 0 -17 -11 -21 -24z"/>
<path d="M4914 3734 c11 -10 16 -34 16 -70 0 -54 -6 -64 -27 -43 -19 19 -51 0
-67 -42 -31 -78 -12 -237 31 -253 9 -4 23 0 33 9 21 19 30 19 30 1 0 -12 6
-13 30 -5 31 11 38 23 20 34 -6 4 -10 80 -10 196 l0 189 -36 0 c-32 0 -34 -1
-20 -16z m0 -156 c18 -26 22 -151 6 -192 -11 -29 -35 -34 -44 -10 -3 9 -6 55
-6 104 0 120 11 145 44 98z"/>
<path d="M6234 3734 c11 -10 16 -34 16 -70 0 -30 -2 -54 -5 -54 -3 0 -14 6
-26 13 -62 38 -106 -160 -59 -265 17 -37 39 -43 67 -17 l23 22 0 -21 c0 -19 3
-20 30 -11 31 11 38 23 20 34 -6 4 -10 80 -10 196 l0 189 -36 0 c-32 0 -34 -1
-20 -16z m0 -156 c18 -26 22 -151 6 -192 -11 -29 -35 -34 -44 -10 -3 9 -6 55
-6 104 0 120 11 145 44 98z"/>
<path d="M6524 3734 c11 -11 16 -34 16 -76 0 -60 0 -61 -20 -43 -42 38 -81
-14 -88 -121 -3 -55 0 -86 12 -118 21 -54 41 -64 73 -35 l23 22 0 -21 c0 -19
3 -20 30 -11 31 11 38 23 20 34 -6 4 -10 80 -10 196 l0 189 -36 0 c-32 0 -34
-1 -20 -16z m6 -164 c15 -36 10 -184 -7 -201 -9 -9 -16 -9 -28 1 -11 10 -15
34 -15 105 0 52 3 100 6 109 10 25 30 19 44 -14z"/>
<path d="M6898 3743 c9 -3 12 -56 12 -215 0 -203 1 -210 18 -195 17 15 19 15
35 0 13 -14 21 -15 42 -5 37 17 57 73 57 158 0 107 -39 168 -82 129 -20 -18
-20 -17 -20 58 l0 77 -37 -1 c-21 0 -32 -3 -25 -6z m113 -180 c6 -16 9 -65 7
-110 -5 -87 -20 -122 -44 -102 -10 8 -14 40 -14 119 0 58 3 110 7 113 14 15
34 6 44 -20z"/>
<path d="M7373 3739 c13 -8 17 -24 17 -76 0 -65 0 -66 -20 -48 -23 21 -43 15
-67 -22 -14 -21 -18 -47 -18 -113 0 -130 32 -185 82 -139 l23 22 0 -21 c0 -19
3 -20 30 -11 31 11 38 23 20 34 -6 4 -10 80 -10 196 l0 189 -37 0 c-31 -1 -35
-3 -20 -11z m5 -164 c18 -39 15 -177 -3 -201 -15 -19 -15 -19 -30 0 -15 20
-22 176 -9 210 9 24 29 19 42 -9z"/>
<path d="M7702 3714 c11 -41 6 -339 -6 -366 -7 -16 -2 -18 35 -18 33 0 40 3
31 12 -18 18 -16 209 3 234 13 16 16 17 25 4 13 -20 13 -206 0 -231 -10 -17
-7 -19 30 -19 38 0 52 11 30 25 -6 4 -10 56 -10 124 0 129 -10 159 -48 147
-12 -4 -22 -12 -22 -17 0 -5 -4 -9 -10 -9 -6 0 -10 32 -10 75 l0 75 -29 0
c-29 0 -29 -1 -19 -36z"/>
<path d="M7617 3705 c-5 -16 -20 -47 -34 -69 -14 -23 -21 -41 -15 -45 5 -3 11
-57 14 -118 3 -91 7 -116 21 -130 13 -13 21 -15 34 -7 21 13 29 36 11 32 -10
-2 -14 22 -16 110 -3 107 -2 112 18 112 11 0 20 7 20 15 0 8 -9 15 -20 15 -16
0 -19 8 -22 58 -3 50 -4 53 -11 27z"/>
<path d="M8648 3705 c-3 -16 -19 -48 -33 -70 -17 -24 -23 -41 -16 -43 7 -2 11
-39 11 -102 0 -105 10 -147 36 -157 18 -7 54 28 54 51 0 6 -5 3 -11 -7 -20
-35 -29 -4 -29 104 0 102 1 109 20 109 11 0 20 7 20 15 0 8 -9 15 -20 15 -16
0 -19 8 -22 58 -2 46 -4 51 -10 27z"/>
<path d="M4697 3608 c-13 -19 -16 -20 -16 -5 -1 12 -9 17 -28 17 l-28 0 0
-145 0 -145 30 0 30 0 -3 112 c-3 90 0 117 12 133 14 17 17 18 26 5 13 -20 13
-217 0 -225 -22 -14 -8 -25 32 -25 33 0 39 3 30 12 -8 8 -12 50 -12 125 0 118
-11 163 -40 163 -10 0 -25 -10 -33 -22z"/>
<path d="M5326 3611 c-50 -55 -48 -229 4 -276 63 -57 131 78 100 203 -19 82
-66 115 -104 73z m54 -20 c15 -29 13 -213 -3 -235 -12 -16 -14 -16 -26 -2 -14
17 -19 225 -6 246 10 16 23 12 35 -9z"/>
<path d="M5797 3618 c-37 -29 -44 -113 -8 -106 12 3 15 14 13 45 -3 47 14 65
35 38 24 -33 16 -73 -21 -105 -56 -50 -74 -129 -34 -154 13 -8 22 -5 41 12 24
23 24 23 30 3 6 -26 42 -28 52 -4 3 10 1 19 -4 21 -7 2 -11 44 -11 111 0 80
-4 112 -16 129 -17 24 -51 29 -77 10z m49 -224 c-3 -8 -12 -14 -21 -14 -21 0
-20 59 3 90 l17 25 3 -44 c2 -24 1 -50 -2 -57z"/>
<path d="M6017 3608 c-13 -19 -16 -20 -16 -5 -1 12 -9 17 -28 17 l-28 0 0
-145 0 -145 40 0 c30 0 36 3 27 12 -18 18 -16 209 3 234 13 16 16 17 25 4 13
-20 13 -206 0 -231 -10 -17 -7 -19 32 -19 33 0 39 3 30 12 -8 8 -12 50 -12
124 0 62 -4 124 -10 138 -12 32 -42 34 -63 4z"/>
<path d="M6668 3613 c-51 -60 -50 -231 3 -279 45 -41 94 12 106 115 14 116
-58 223 -109 164z m52 -22 c13 -26 13 -207 -1 -232 -8 -16 -13 -18 -25 -8 -10
9 -14 38 -14 119 0 109 5 140 21 140 4 0 13 -9 19 -19z"/>
<path d="M7132 3607 c-28 -30 -32 -100 -4 -95 13 3 17 13 17 45 0 23 3 44 7
49 14 14 38 -19 38 -52 0 -26 -9 -43 -39 -73 -44 -44 -60 -95 -42 -130 15 -27
33 -27 57 0 l18 20 8 -20 c4 -12 16 -21 27 -21 20 0 39 32 22 38 -7 2 -11 44
-11 111 0 80 -4 112 -16 129 -20 28 -55 28 -82 -1z m56 -174 c-2 -36 -7 -49
-20 -51 -14 -3 -18 3 -18 28 0 35 15 70 31 70 6 0 9 -20 7 -47z"/>
<path d="M8074 3613 c-13 -13 -19 -14 -22 -5 -2 6 -17 12 -32 12 -28 0 -28 -1
-19 -29 12 -33 8 -217 -5 -243 -7 -16 -3 -18 35 -18 33 0 40 3 31 12 -18 18
-16 209 3 234 13 16 16 17 25 4 13 -20 13 -206 0 -231 -10 -17 -7 -19 30 -19
38 0 52 11 30 25 -6 4 -10 55 -10 121 0 146 -18 184 -66 137z"/>
<path d="M8211 3599 c-26 -42 -27 -104 -2 -145 16 -26 17 -33 5 -49 -16 -22
-19 -91 -4 -100 6 -4 4 -12 -5 -21 -19 -19 -19 -58 -1 -73 8 -7 30 -15 49 -18
29 -4 40 -1 61 20 21 21 26 36 26 75 0 58 -12 72 -61 72 -68 0 -76 50 -9 63
40 8 64 56 57 114 -2 23 -1 43 4 43 5 0 9 9 9 20 0 12 -7 20 -17 20 -10 0 -35
3 -55 6 -34 6 -38 4 -57 -27z m72 -30 c17 -64 -7 -149 -34 -122 -12 12 -15
135 -4 153 12 19 29 5 38 -31z m27 -294 c17 -20 4 -52 -26 -59 -47 -12 -87 29
-58 59 20 19 68 20 84 0z"/>
<path d="M8389 3613 c-8 -9 -14 -39 -14 -68 0 -43 6 -61 31 -96 37 -54 45 -72
34 -89 -12 -20 -39 -4 -55 32 l-14 33 0 -55 c-1 -34 3 -50 8 -42 7 12 12 12
30 1 57 -36 94 104 44 168 -43 53 -55 83 -42 99 15 18 28 9 45 -30 l13 -31 1
45 c0 44 -1 45 -34 47 -21 2 -39 -3 -47 -14z"/>
<path d="M8761 3617 c-41 -50 -53 -165 -25 -237 18 -45 44 -64 74 -55 66 21
79 226 19 286 -22 22 -52 25 -68 6z m59 -140 c0 -107 -11 -147 -36 -126 -19
15 -20 229 -2 247 25 25 38 -16 38 -121z"/>
<path d="M9211 3617 c-41 -50 -53 -165 -25 -237 18 -45 44 -64 74 -55 66 21
79 226 19 286 -22 22 -52 25 -68 6z m59 -140 c0 -107 -11 -147 -36 -126 -19
15 -20 229 -2 247 25 25 38 -16 38 -121z"/>
<path d="M4518 3608 c17 -17 17 -249 0 -266 -9 -9 -1 -12 37 -12 38 0 46 3 37
12 -8 8 -12 55 -12 145 l0 133 -37 0 c-29 0 -34 -3 -25 -12z"/>
<path d="M5106 3603 c4 -10 24 -82 44 -160 l36 -141 18 80 c9 44 15 82 12 86
-3 3 -6 0 -6 -7 0 -7 -4 -10 -9 -7 -12 8 -34 122 -28 146 5 18 0 20 -35 20
-35 0 -39 -2 -32 -17z"/>
<path d="M5229 3573 l4 -48 9 35 c6 19 14 41 20 48 8 9 5 12 -13 12 -23 0 -24
-3 -20 -47z"/>
<path d="M5468 3608 c8 -8 12 -47 12 -107 0 -156 25 -208 76 -161 20 20 24 21
24 7 0 -12 9 -17 32 -17 25 0 29 3 20 12 -8 8 -12 55 -12 145 l0 133 -30 0
c-28 0 -29 -2 -20 -26 13 -34 13 -180 0 -205 -6 -10 -17 -19 -25 -19 -12 0
-15 22 -15 125 l0 125 -37 0 c-29 0 -34 -3 -25 -12z"/>
<path d="M7888 3608 c8 -8 12 -52 12 -133 0 -81 -4 -125 -12 -133 -9 -9 -1
-12 37 -12 38 0 46 3 37 12 -8 8 -12 55 -12 145 l0 133 -37 0 c-29 0 -34 -3
-25 -12z"/>
<path d="M8980 3612 c0 -4 4 -12 9 -17 8 -9 65 -236 73 -290 2 -11 14 29 26
89 13 59 21 110 19 113 -3 2 -8 -13 -12 -34 l-7 -38 -15 40 c-8 22 -15 64 -16
92 l-2 53 -37 0 c-21 0 -38 -4 -38 -8z"/>
<path d="M9109 3606 c7 -9 10 -30 7 -53 l-6 -38 10 35 c6 19 15 43 20 53 9 14
6 17 -16 17 -22 0 -24 -3 -15 -14z"/>
<path d="M9361 3492 c8 -167 24 -199 76 -150 20 18 23 19 23 5 0 -12 9 -17 30
-17 27 0 30 2 20 19 -5 11 -10 76 -10 145 l0 126 -30 0 c-27 0 -30 -2 -20 -19
5 -11 10 -59 10 -106 0 -89 -10 -125 -35 -125 -12 0 -15 22 -15 125 l0 125
-27 0 -28 0 6 -128z"/>
<path d="M5222 3500 c0 -14 2 -19 5 -12 2 6 2 18 0 25 -3 6 -5 1 -5 -13z"/>
<path d="M9554 3394 c-8 -30 11 -77 28 -72 15 5 26 45 20 76 -6 31 -40 29 -48
-4z"/>
<path d="M5167 3263 c-8 -39 -27 -44 -27 -8 0 15 -6 25 -14 25 -30 0 -24 -82
7 -88 19 -4 51 57 45 86 -2 10 -7 3 -11 -15z"/>
<path d="M8990 3246 c0 -19 7 -39 16 -47 14 -11 18 -10 30 6 18 25 18 36 -1
29 -11 -5 -15 1 -15 20 0 16 -6 26 -15 26 -10 0 -15 -10 -15 -34z"/>
<path d="M9051 3264 c0 -11 3 -14 6 -6 3 7 2 16 -1 19 -3 4 -6 -2 -5 -13z"/>
<path d="M9181 2700 c-19 -87 -89 -475 -86 -478 7 -8 13 14 55 237 23 117 39
221 37 230 -3 9 -5 14 -6 11z"/>
<path d="M9232 2473 c-24 -126 -43 -234 -42 -242 1 -35 12 5 35 130 15 74 35
178 46 233 22 114 21 106 11 106 -4 0 -27 -102 -50 -227z"/>
<path d="M9512 2693 c-18 -7 -39 -51 -47 -101 -4 -26 -13 -46 -23 -49 -26 -10
-33 -27 -13 -33 17 -5 16 -12 -9 -145 -25 -130 -28 -156 -15 -143 3 2 17 68
32 146 25 134 28 142 50 142 28 0 31 26 3 33 -17 4 -19 11 -13 39 10 56 22 80
42 85 11 3 22 11 25 19 5 14 -8 17 -32 7z"/>
<path d="M9995 2605 c-10 -52 -20 -95 -22 -95 -3 0 -13 10 -23 22 -15 19 -21
21 -43 11 -59 -27 -109 -224 -75 -298 15 -34 52 -33 75 2 l18 27 5 -29 c6 -30
18 20 70 300 10 55 21 112 25 128 4 15 3 27 -2 27 -6 0 -18 -43 -28 -95z m-48
-97 c19 -24 21 -57 7 -123 -17 -80 -37 -121 -64 -130 -34 -11 -50 12 -50 69 0
120 67 235 107 184z"/>
<path d="M9070 2640 c0 -16 5 -30 10 -30 6 0 10 3 10 8 0 4 3 17 6 30 5 16 2
22 -10 22 -11 0 -16 -9 -16 -30z"/>
<path d="M9580 2656 c0 -8 -3 -21 -6 -30 -4 -11 -1 -16 10 -16 9 0 16 6 16 14
0 8 3 21 6 30 4 11 1 16 -10 16 -9 0 -16 -6 -16 -14z"/>
<path d="M9699 2519 l-29 -31 0 28 c0 48 -9 21 -34 -102 -36 -181 -39 -200
-27 -189 5 6 17 55 27 110 18 106 47 168 83 178 43 11 46 -15 21 -154 -13 -71
-21 -132 -18 -135 7 -6 21 52 45 193 14 84 15 104 4 117 -20 24 -40 20 -72
-15z"/>
<path d="M10393 2544 c-20 -9 -54 -71 -69 -127 -27 -103 -13 -197 31 -197 43
0 86 69 105 168 23 116 -5 181 -67 156z m45 -36 c30 -30 -4 -215 -45 -245 -52
-40 -80 8 -63 106 20 116 69 178 108 139z"/>
<path d="M8756 2524 c-10 -26 -7 -304 3 -304 5 0 31 65 57 145 27 79 51 141
54 137 3 -4 3 -65 0 -137 -4 -71 -3 -134 1 -139 9 -10 12 -4 69 154 21 58 43
117 49 133 6 15 7 27 2 27 -5 0 -27 -55 -50 -122 -62 -181 -62 -181 -57 -20 4
108 2 142 -7 142 -7 0 -32 -58 -56 -132 -24 -73 -48 -137 -53 -143 -6 -6 -7
42 -2 133 6 134 4 163 -10 126z"/>
<path d="M9055 2529 c-15 -41 -61 -317 -51 -308 9 9 68 310 62 317 -3 3 -8 -1
-11 -9z"/>
<path d="M9534 2384 c-17 -85 -27 -157 -23 -159 4 -3 19 59 34 138 14 78 29
150 31 160 3 9 1 17 -3 17 -5 0 -22 -70 -39 -156z"/>
<path d="M10160 2378 c0 -147 -2 -166 -21 -197 -11 -18 -29 -35 -40 -38 -24
-7 -26 -36 -2 -31 28 5 56 56 118 215 32 81 64 163 72 181 7 17 9 32 4 32 -5
0 -30 -58 -57 -130 -27 -71 -51 -130 -54 -130 -3 0 -4 58 -2 130 3 88 0 130
-7 130 -7 0 -11 -53 -11 -162z"/>
<path d="M10557 2530 c-9 -24 -47 -233 -47 -257 0 -62 43 -72 85 -20 l27 32
-4 -32 c-3 -18 -1 -33 2 -33 4 0 19 62 34 138 15 75 29 147 31 160 3 12 1 22
-4 22 -5 0 -17 -44 -26 -97 -10 -54 -24 -113 -33 -131 -17 -38 -55 -67 -77
-58 -20 7 -19 44 5 166 12 56 19 107 17 114 -3 7 -7 5 -10 -4z"/>
<path d="M9181 1670 c-19 -87 -89 -475 -86 -478 7 -8 13 14 55 237 23 117 39
221 37 230 -3 9 -5 14 -6 11z"/>
<path d="M9232 1443 c-24 -126 -43 -234 -42 -242 1 -35 12 5 35 130 15 74 35
178 46 233 22 114 21 106 11 106 -4 0 -27 -102 -50 -227z"/>
<path d="M9512 1663 c-18 -7 -39 -51 -47 -101 -4 -26 -13 -46 -23 -49 -26 -10
-33 -27 -13 -33 17 -5 16 -12 -9 -145 -25 -130 -28 -156 -15 -143 3 2 17 68
32 146 25 134 28 142 50 142 28 0 31 26 3 33 -17 4 -19 11 -13 39 10 56 22 80
42 85 11 3 22 11 25 19 5 14 -8 17 -32 7z"/>
<path d="M9995 1575 c-10 -52 -20 -95 -22 -95 -3 0 -13 10 -23 22 -15 19 -21
21 -43 11 -59 -27 -109 -224 -75 -298 15 -34 52 -33 75 2 l18 27 5 -29 c6 -30
18 20 70 300 10 55 21 112 25 128 4 15 3 27 -2 27 -6 0 -18 -43 -28 -95z m-48
-97 c19 -24 21 -57 7 -123 -17 -80 -37 -121 -64 -130 -34 -11 -50 12 -50 69 0
120 67 235 107 184z"/>
<path d="M9070 1610 c0 -16 5 -30 10 -30 6 0 10 3 10 8 0 4 3 17 6 30 5 16 2
22 -10 22 -11 0 -16 -9 -16 -30z"/>
<path d="M9580 1626 c0 -8 -3 -21 -6 -30 -4 -11 -1 -16 10 -16 9 0 16 6 16 14
0 8 3 21 6 30 4 11 1 16 -10 16 -9 0 -16 -6 -16 -14z"/>
<path d="M9699 1489 l-29 -31 0 28 c0 48 -9 21 -34 -102 -36 -181 -39 -200
-27 -189 5 6 17 55 27 110 18 106 47 168 83 178 43 11 46 -15 21 -154 -13 -71
-21 -132 -18 -135 7 -6 21 52 45 193 14 84 15 104 4 117 -20 24 -40 20 -72
-15z"/>
<path d="M10393 1514 c-20 -9 -54 -71 -69 -127 -27 -103 -13 -197 31 -197 43
0 86 69 105 168 23 116 -5 181 -67 156z m45 -36 c30 -30 -4 -215 -45 -245 -52
-40 -80 8 -63 106 20 116 69 178 108 139z"/>
<path d="M8756 1494 c-10 -26 -7 -304 3 -304 5 0 31 65 57 145 27 79 51 141
54 137 3 -4 3 -65 0 -137 -4 -71 -3 -134 1 -139 9 -10 12 -4 69 154 21 58 43
117 49 133 6 15 7 27 2 27 -5 0 -27 -55 -50 -122 -62 -181 -62 -181 -57 -20 4
108 2 142 -7 142 -7 0 -32 -58 -56 -132 -24 -73 -48 -137 -53 -143 -6 -6 -7
42 -2 133 6 134 4 163 -10 126z"/>
<path d="M9055 1499 c-15 -41 -61 -317 -51 -308 9 9 68 310 62 317 -3 3 -8 -1
-11 -9z"/>
<path d="M9534 1354 c-17 -85 -27 -157 -23 -159 4 -3 19 59 34 138 14 78 29
150 31 160 3 9 1 17 -3 17 -5 0 -22 -70 -39 -156z"/>
<path d="M10160 1348 c0 -147 -2 -166 -21 -197 -11 -18 -29 -35 -40 -38 -24
-7 -26 -36 -2 -31 28 5 56 56 118 215 32 81 64 163 72 181 7 17 9 32 4 32 -5
0 -30 -58 -57 -130 -27 -71 -51 -130 -54 -130 -3 0 -4 58 -2 130 3 88 0 130
-7 130 -7 0 -11 -53 -11 -162z"/>
<path d="M10557 1500 c-9 -24 -47 -233 -47 -257 0 -62 43 -72 85 -20 l27 32
-4 -32 c-3 -18 -1 -33 2 -33 4 0 19 62 34 138 15 75 29 147 31 160 3 12 1 22
-4 22 -5 0 -17 -44 -26 -97 -10 -54 -24 -113 -33 -131 -17 -38 -55 -67 -77
-58 -20 7 -19 44 5 166 12 56 19 107 17 114 -3 7 -7 5 -10 -4z"/>
<path d="M5313 663 c-9 -3 -9 -9 -2 -21 8 -13 2 -67 -20 -205 -35 -211 -34
-207 -22 -207 5 0 15 25 21 56 7 31 18 71 26 90 16 38 18 56 4 34 -15 -23 -13
0 10 125 11 60 20 115 20 122 0 13 -15 16 -37 6z"/>
<path d="M5827 663 c-17 -4 -17 -6 -2 -17 16 -11 16 -20 5 -85 -10 -58 -14
-70 -25 -61 -42 35 -105 -64 -112 -178 -7 -102 26 -134 63 -59 11 24 11 28 1
14 -20 -25 -35 -21 -41 10 -12 53 25 184 58 205 16 11 36 -12 36 -42 0 -15 -6
-47 -13 -71 -14 -51 -16 -142 -3 -149 5 -3 16 6 25 20 9 14 11 21 4 16 -19
-11 -17 21 17 221 17 98 30 179 30 180 0 4 -21 2 -43 -4z"/>
<path d="M6691 641 c-11 -15 -26 -49 -33 -75 -7 -26 -21 -52 -31 -58 -17 -9
-17 -11 -3 -21 14 -11 14 -27 -7 -167 l-22 -155 -1018 -3 c-810 -2 -1017 0
-1017 10 1 37 13 58 31 53 28 -9 55 11 78 57 32 67 44 139 31 187 -13 49 -38
54 -70 13 l-21 -27 4 28 c4 28 -5 33 -37 21 -13 -5 -13 -8 -2 -19 9 -10 11
-26 6 -57 -4 -24 -15 -94 -25 -156 l-18 -112 -381 0 c-693 1 -656 2 -656 -15
0 -12 18 -15 104 -15 97 0 105 -1 111 -21 l7 -21 22 21 c22 21 31 21 406 21
382 0 383 0 365 -20 -18 -20 -17 -20 23 -20 23 0 42 5 42 10 0 6 -4 10 -10 10
-5 0 -10 5 -10 10 0 7 335 10 985 10 851 0 985 -2 985 -14 0 -26 21 -29 44 -7
22 21 29 21 429 21 355 0 407 2 407 15 0 13 -51 15 -401 15 l-401 0 7 28 c4
15 17 88 29 162 15 89 26 134 34 132 7 -1 12 5 12 13 0 8 -5 15 -11 15 -13 0
-3 69 17 118 14 34 47 45 43 15 -3 -30 1 -39 10 -24 13 20 1 51 -19 51 -10 0
-28 -13 -39 -29z m-2013 -206 c5 -52 -24 -159 -49 -180 -10 -10 -25 -15 -35
-11 -14 5 -15 16 -10 66 7 64 29 134 48 157 21 26 43 10 46 -32z m1897 -315
c-3 -5 -10 -10 -16 -10 -5 0 -9 5 -9 10 0 6 7 10 16 10 8 0 12 -4 9 -10z"/>
<path d="M9181 650 c-19 -87 -89 -475 -86 -478 7 -8 13 14 55 237 23 117 39
221 37 230 -3 9 -5 14 -6 11z"/>
<path d="M9232 423 c-24 -126 -43 -234 -42 -242 1 -35 12 5 35 130 15 74 35
178 46 233 22 114 21 106 11 106 -4 0 -27 -102 -50 -227z"/>
<path d="M9512 643 c-18 -7 -39 -51 -47 -101 -4 -26 -13 -46 -23 -49 -26 -10
-33 -27 -13 -33 17 -5 16 -12 -9 -145 -25 -130 -28 -156 -15 -143 3 2 17 68
32 146 25 134 28 142 50 142 28 0 31 26 3 33 -17 4 -19 11 -13 39 10 56 22 80
42 85 11 3 22 11 25 19 5 14 -8 17 -32 7z"/>
<path d="M9995 555 c-10 -52 -20 -95 -22 -95 -3 0 -13 10 -23 22 -15 19 -21
21 -43 11 -59 -27 -109 -224 -75 -298 15 -34 52 -33 75 2 l18 27 5 -29 c6 -30
18 20 70 300 10 55 21 112 25 128 4 15 3 27 -2 27 -6 0 -18 -43 -28 -95z m-48
-97 c19 -24 21 -57 7 -123 -17 -80 -37 -121 -64 -130 -34 -11 -50 12 -50 69 0
120 67 235 107 184z"/>
<path d="M9070 590 c0 -32 14 -40 24 -14 10 27 7 44 -9 44 -10 0 -15 -10 -15
-30z"/>
<path d="M9580 606 c0 -8 -3 -21 -6 -30 -4 -11 -1 -16 10 -16 9 0 16 6 16 14
0 8 3 21 6 30 4 11 1 16 -10 16 -9 0 -16 -6 -16 -14z"/>
<path d="M3576 564 c-4 -14 -18 -37 -31 -50 -19 -19 -21 -25 -9 -32 12 -7 12
-19 -1 -92 -26 -148 -16 -204 25 -138 11 18 20 38 20 43 -1 6 -8 -3 -17 -20
-24 -45 -27 -17 -8 98 11 67 22 106 33 115 14 10 14 14 4 21 -9 6 -11 19 -7
45 8 41 1 49 -9 10z"/>
<path d="M4066 564 c-4 -14 -18 -37 -31 -50 -19 -19 -21 -25 -10 -32 12 -6 12
-19 0 -87 -17 -94 -19 -161 -5 -170 10 -6 50 51 50 70 -1 6 -8 -3 -18 -20 -14
-26 -17 -27 -19 -10 -6 38 32 220 45 218 7 -2 12 4 12 12 0 8 -5 15 -11 15 -7
0 -8 14 -4 40 8 44 1 55 -9 14z"/>
<path d="M5230 576 c0 -7 -11 -29 -24 -49 -14 -20 -20 -37 -15 -39 7 -2 5 -36
-5 -93 -27 -153 -17 -210 24 -143 11 18 20 38 20 43 -1 6 -8 -3 -17 -20 -14
-24 -18 -27 -21 -12 -7 34 30 211 47 225 13 11 14 14 2 21 -10 6 -12 19 -7 45
4 20 4 36 1 36 -3 0 -5 -6 -5 -14z"/>
<path d="M7086 564 c-4 -14 -18 -37 -31 -50 -19 -19 -21 -25 -9 -32 12 -7 12
-19 -1 -92 -26 -148 -16 -204 25 -138 11 18 20 38 20 43 -1 6 -8 -3 -17 -20
-24 -45 -27 -17 -8 98 11 67 22 106 33 115 14 10 14 14 4 21 -9 6 -11 19 -7
45 8 41 1 49 -9 10z"/>
<path d="M3635 501 c-17 -7 -17 -9 -3 -17 15 -8 15 -18 -3 -124 -22 -136 -22
-130 -10 -130 5 0 15 26 21 58 7 31 18 72 26 90 7 18 9 30 4 27 -12 -8 -12 18
-1 68 9 39 5 43 -34 28z"/>
<path d="M3704 479 c-9 -19 -11 -28 -4 -24 7 4 16 1 21 -6 7 -11 10 -9 15 9 4
14 13 22 23 20 21 -4 30 -57 31 -183 l1 -100 25 48 c14 27 23 52 20 55 -3 3
-6 0 -6 -6 0 -7 -4 -12 -9 -12 -5 0 -10 49 -13 110 -2 60 -7 112 -10 116 -4 3
-17 0 -29 -7 -17 -9 -24 -9 -27 0 -7 20 -21 12 -38 -20z"/>
<path d="M3874 466 c5 -32 2 -58 -13 -97 -11 -29 -19 -55 -17 -57 2 -2 13 22
25 53 23 60 28 145 10 145 -8 0 -9 -14 -5 -44z"/>
<path d="M4156 485 c-33 -35 -60 -127 -53 -182 6 -54 35 -88 66 -78 59 18 106
200 67 260 -21 32 -51 32 -80 0z m70 -17 c17 -53 -26 -211 -61 -225 -24 -9
-35 14 -35 73 0 121 70 233 96 152z"/>
<path d="M4426 485 c-33 -35 -60 -127 -53 -182 6 -54 35 -88 66 -78 59 18 106
200 67 260 -21 32 -51 32 -80 0z m70 -17 c17 -53 -26 -211 -61 -225 -24 -9
-35 14 -35 73 0 121 70 233 96 152z"/>
<path d="M4786 479 c-56 -66 -71 -199 -27 -243 l21 -20 26 20 c15 11 34 31 43
44 l15 25 -25 -22 c-31 -28 -55 -29 -69 -4 -21 40 -12 66 26 80 20 7 43 26 55
44 50 83 -5 147 -65 76z m58 -23 c-1 -24 -10 -46 -24 -61 -24 -26 -62 -34 -56
-12 3 6 7 24 10 38 7 33 45 81 60 76 6 -2 10 -21 10 -41z"/>
<path d="M4918 503 c-21 -5 -24 -19 -6 -25 12 -4 8 -53 -18 -210 -12 -72 14
-39 31 39 20 87 30 204 18 202 -4 -1 -16 -3 -25 -6z"/>
<path d="M4984 478 c-16 -31 -16 -32 0 -19 9 8 19 11 22 8 4 -3 -1 -56 -10
-118 -9 -61 -13 -115 -10 -120 7 -12 21 -3 35 23 8 15 8 19 0 14 -15 -10 -14
21 4 123 8 47 13 93 9 103 -9 28 -32 21 -50 -14z"/>
<path d="M5354 478 c-16 -31 -16 -32 0 -19 9 8 19 11 23 7 4 -3 -1 -54 -10
-112 -15 -103 -14 -140 4 -128 5 3 14 14 20 26 8 15 8 19 0 14 -14 -9 -14 10
4 119 8 49 12 98 9 107 -9 28 -32 21 -50 -14z"/>
<path d="M5496 479 c-56 -66 -71 -199 -27 -243 l21 -20 26 20 c15 11 34 31 43
44 l15 25 -25 -22 c-31 -28 -55 -29 -69 -4 -21 40 -12 66 26 80 20 7 43 26 55
44 50 83 -5 147 -65 76z m62 -10 c4 -32 -37 -93 -66 -97 -14 -2 -21 1 -18 10
2 7 7 25 10 39 7 33 45 81 60 76 6 -2 12 -15 14 -28z"/>
<path d="M5924 483 c-54 -59 -69 -202 -25 -246 18 -18 23 -19 44 -8 40 21 69
86 75 162 8 109 -37 153 -94 92z m71 -23 c8 -39 -13 -151 -36 -189 -12 -20
-26 -31 -37 -29 -22 4 -29 103 -11 166 23 84 70 114 84 52z"/>
<path d="M6104 483 c-54 -59 -69 -202 -25 -246 18 -18 23 -19 44 -8 40 21 69
86 75 162 8 109 -37 153 -94 92z m71 -23 c8 -39 -13 -151 -36 -189 -12 -20
-26 -31 -37 -29 -22 4 -29 103 -11 166 23 84 70 114 84 52z"/>
<path d="M6258 503 c-14 -4 -15 -8 -6 -23 11 -18 4 -110 -19 -221 -3 -18 -1
-29 5 -29 6 0 14 17 17 38 4 20 10 51 15 67 13 45 22 175 13 174 -4 -1 -16 -3
-25 -6z"/>
<path d="M6326 485 c-20 -30 -20 -36 -1 -29 8 4 15 1 15 -6 0 -6 5 -8 10 -5
12 8 13 65 1 65 -5 0 -16 -11 -25 -25z"/>
<path d="M6413 497 c-24 -29 -23 -67 3 -131 31 -79 30 -121 -5 -121 -19 0 -27
8 -37 35 l-12 35 -1 -41 c-1 -26 3 -41 12 -41 6 0 20 -4 29 -8 10 -4 24 1 37
14 29 29 27 87 -4 162 -20 46 -23 64 -15 79 14 25 39 15 46 -19 10 -47 11 -47
15 -1 4 44 3 45 -27 47 -18 2 -36 -3 -41 -10z"/>
<path d="M6760 483 c-34 -43 -51 -92 -57 -163 -4 -48 -1 -70 10 -85 13 -17 17
-17 31 -5 10 7 22 22 27 32 9 17 8 18 -11 6 -30 -19 -42 5 -35 64 12 98 54
179 82 157 11 -9 12 -8 7 5 -9 24 -30 20 -54 -11z"/>
<path d="M6826 488 c-3 -13 -6 -35 -6 -50 0 -14 -9 -54 -19 -87 -10 -33 -15
-58 -10 -55 6 3 7 -5 3 -20 -3 -14 -3 -33 0 -42 6 -15 8 -15 26 1 14 13 17 21
9 26 -9 5 -8 33 5 112 9 58 16 113 16 121 0 24 -17 19 -24 -6z"/>
<path d="M6923 497 c-24 -29 -23 -67 3 -131 30 -76 29 -120 -3 -124 -17 -3
-26 4 -37 30 l-14 33 -1 -36 c-1 -22 4 -36 12 -36 6 0 20 -4 29 -8 10 -4 24 1
37 14 29 29 27 87 -4 162 -20 46 -23 64 -15 79 19 35 38 23 50 -34 6 -29 7
-29 11 14 4 44 3 45 -27 47 -18 2 -36 -3 -41 -10z"/>
<path d="M7176 479 c-56 -66 -71 -199 -27 -243 l21 -20 26 20 c15 11 34 31 43
44 l15 25 -25 -22 c-31 -28 -55 -29 -69 -4 -21 40 -12 66 26 80 20 7 43 26 55
44 50 83 -5 147 -65 76z m60 6 c9 -24 -5 -65 -31 -91 -25 -25 -57 -33 -51 -11
3 6 7 24 10 38 6 29 42 79 57 79 5 0 12 -7 15 -15z"/>
<path d="M7305 501 c-17 -7 -17 -9 -3 -17 15 -8 15 -18 -2 -119 -22 -128 -23
-135 -11 -135 12 0 42 138 48 217 4 64 2 67 -32 54z"/>
<path d="M7375 480 c-13 -26 -14 -29 0 -24 8 4 15 1 15 -6 0 -6 5 -8 10 -5 13
8 13 65 0 65 -5 0 -16 -13 -25 -30z"/>
<path d="M9699 469 l-29 -31 0 28 c0 48 -9 21 -34 -102 -36 -181 -39 -200 -27
-189 5 6 17 55 27 110 18 106 47 168 83 178 43 11 46 -15 21 -154 -13 -71 -21
-132 -18 -135 7 -6 21 52 45 193 14 84 15 104 4 117 -20 24 -40 20 -72 -15z"/>
<path d="M10393 494 c-20 -9 -54 -71 -69 -127 -27 -103 -13 -197 31 -197 43 0
86 69 105 168 23 116 -5 181 -67 156z m45 -36 c30 -30 -4 -215 -45 -245 -52
-40 -80 8 -63 106 20 116 69 178 108 139z"/>
<path d="M8756 474 c-10 -26 -7 -304 3 -304 5 0 31 65 57 145 27 79 51 141 54
137 3 -4 3 -65 0 -137 -4 -72 -3 -134 1 -139 9 -10 12 -4 69 154 21 58 43 117
49 133 6 15 7 27 2 27 -5 0 -27 -55 -50 -122 -62 -181 -62 -181 -57 -20 4 108
2 142 -7 142 -7 0 -32 -58 -56 -132 -24 -73 -48 -137 -53 -143 -6 -6 -7 42 -2
133 6 134 4 163 -10 126z"/>
<path d="M9055 479 c-15 -41 -61 -317 -51 -308 9 9 68 310 62 317 -3 3 -8 -1
-11 -9z"/>
<path d="M9534 334 c-17 -85 -27 -157 -23 -159 4 -3 19 59 34 138 14 78 29
150 31 160 3 9 1 17 -3 17 -5 0 -22 -70 -39 -156z"/>
<path d="M10160 328 c0 -147 -2 -166 -21 -197 -11 -18 -29 -35 -40 -38 -24 -7
-26 -36 -2 -31 28 5 56 56 118 215 32 81 64 163 72 181 7 17 9 32 4 32 -5 0
-30 -58 -57 -130 -27 -71 -51 -130 -54 -130 -3 0 -4 58 -2 130 3 88 0 130 -7
130 -7 0 -11 -53 -11 -162z"/>
<path d="M10557 480 c-9 -24 -47 -233 -47 -257 0 -62 43 -72 85 -20 l27 32 -4
-32 c-3 -18 -1 -33 2 -33 4 0 19 62 34 137 15 76 29 148 31 161 3 12 1 22 -4
22 -5 0 -17 -44 -26 -97 -10 -54 -24 -113 -33 -131 -17 -38 -55 -67 -77 -58
-20 7 -19 44 5 166 12 56 19 107 17 114 -3 7 -7 5 -10 -4z"/>
</g>
</svg>
