<?xml version="1.0" standalone="no"?>
<!DOCTYPE svg PUBLIC "-//W3C//DTD SVG 20010904//EN"
 "http://www.w3.org/TR/2001/REC-SVG-20010904/DTD/svg10.dtd">
<svg version="1.0" xmlns="http://www.w3.org/2000/svg"
 width="1323.000000pt" height="1200.000000pt" viewBox="0 0 1323.000000 1200.000000"
 preserveAspectRatio="xMidYMid meet">

<g transform="translate(0.000000,1200.000000) scale(0.100000,-0.100000)"
fill="#000000" stroke="none">
<path d="M0 6000 l0 -6000 6615 0 6615 0 0 6000 0 6000 -6615 0 -6615 0 0
-6000z m6791 3240 c5 0 9 -5 9 -10 0 -6 20 -32 44 -58 24 -26 70 -75 101 -109
32 -34 66 -65 76 -68 11 -4 19 -13 19 -20 0 -19 68 -82 115 -107 22 -11 54
-31 71 -44 17 -13 34 -24 38 -24 4 0 12 -4 19 -10 47 -38 73 -58 77 -58 30 -4
124 -45 157 -69 17 -13 37 -23 42 -23 6 0 30 -9 54 -19 23 -11 58 -22 77 -25
19 -3 68 -20 109 -36 40 -17 80 -30 89 -30 8 0 29 -4 46 -9 101 -31 139 -40
146 -36 5 3 10 0 12 -6 2 -7 31 -14 64 -17 32 -2 65 -9 71 -14 7 -6 52 -12
100 -15 120 -5 162 -19 179 -58 7 -16 14 -23 14 -15 0 12 3 11 11 -3 8 -14 6
-29 -10 -62 -25 -53 -25 -55 -6 -55 14 0 14 -4 0 -37 -16 -38 -33 -55 -46 -47
-4 2 -10 0 -14 -6 -3 -5 1 -10 9 -10 13 0 12 -4 -4 -20 -22 -22 -26 -40 -10
-40 6 0 10 -12 10 -26 0 -14 -4 -23 -9 -20 -5 3 -8 -2 -7 -11 2 -34 -103 -41
-128 -9 -16 22 -146 87 -181 92 -16 2 -34 10 -40 17 -5 7 -30 19 -55 26 -25 7
-65 24 -89 37 -24 13 -52 24 -63 24 -10 0 -41 11 -68 25 -27 14 -63 25 -79 25
-16 0 -32 4 -35 9 -3 5 -26 12 -50 15 -25 4 -56 16 -69 26 -20 16 -42 20 -108
21 -106 1 -193 -9 -239 -29 -19 -9 -37 -16 -40 -16 -7 -1 -72 -48 -85 -61 -51
-51 -45 -209 10 -259 13 -12 45 -32 72 -46 26 -13 59 -34 73 -47 17 -16 37
-23 63 -23 21 0 48 -7 61 -15 13 -9 52 -22 87 -29 35 -8 75 -18 89 -23 14 -6
30 -8 37 -6 6 2 14 -1 18 -6 3 -6 27 -11 52 -11 30 0 53 -7 70 -20 14 -11 33
-20 42 -20 9 0 31 -9 49 -20 18 -11 43 -20 55 -20 13 0 27 -4 32 -9 6 -6 28
-12 50 -15 22 -2 47 -7 55 -10 8 -3 30 -8 49 -10 19 -2 40 -11 46 -20 7 -9 19
-16 27 -16 8 0 24 -13 36 -30 13 -16 29 -30 37 -30 8 0 15 -4 15 -10 0 -5 -9
-10 -20 -10 -17 0 -20 -7 -20 -40 0 -22 4 -40 9 -40 12 0 1 -313 -11 -321 -5
-3 -8 -29 -7 -57 2 -39 -3 -57 -17 -73 -14 -16 -15 -23 -6 -26 14 -5 17 -83 2
-83 -5 0 -10 -11 -10 -25 0 -22 -4 -25 -37 -25 -32 0 -42 -6 -65 -38 -14 -21
-42 -46 -61 -57 -64 -37 -118 -76 -123 -89 -3 -7 -6 -26 -8 -42 -2 -16 -4 -32
-5 -36 0 -4 -10 -5 -20 -3 -23 4 -61 -21 -61 -41 0 -8 -4 -14 -10 -14 -5 0
-10 -13 -10 -30 0 -16 -4 -30 -10 -30 -5 0 -10 -9 -10 -20 0 -12 -9 -30 -20
-42 -10 -12 -17 -24 -15 -28 3 -5 -2 -10 -10 -14 -8 -3 -15 -1 -15 4 0 5 -7 7
-15 4 -8 -4 -13 -10 -10 -14 9 -14 -42 -57 -67 -58 -13 0 -63 -6 -113 -13 -49
-6 -105 -12 -122 -11 -18 0 -33 -4 -33 -9 0 -5 9 -9 20 -9 11 0 20 -4 20 -10
0 -17 -25 -11 -48 10 -26 25 -72 44 -72 30 0 -9 -30 -2 -40 10 -10 11 -59 40
-70 40 -5 0 -10 -7 -10 -15 0 -8 -9 -15 -20 -15 -11 0 -23 7 -26 15 -4 8 -12
15 -20 15 -8 0 -14 9 -14 20 0 18 -7 20 -60 20 -33 0 -60 -4 -60 -10 0 -5 14
-10 30 -10 17 0 30 -4 30 -10 0 -18 -72 -11 -87 8 -14 16 -14 16 -9 0 5 -16
-3 -18 -73 -18 -70 0 -79 2 -84 20 -4 16 -14 20 -46 20 -23 0 -41 -4 -41 -10
0 -5 15 -10 34 -10 19 0 38 -4 41 -10 4 -6 -10 -10 -34 -10 -37 0 -41 -2 -41
-25 0 -22 -4 -25 -39 -25 -23 0 -41 -5 -44 -12 -2 -7 -3 -5 -2 5 3 14 -4 17
-36 17 -38 0 -46 -8 -40 -42 0 -5 -17 -8 -39 -8 -29 0 -40 -4 -40 -15 0 -12
-14 -15 -72 -14 -40 0 -95 4 -123 9 l-50 7 43 2 c47 1 59 21 12 21 -20 0 -30
5 -30 15 0 11 -11 15 -42 14 -24 0 -37 -3 -30 -6 24 -9 12 -23 -20 -22 -18 0
-27 3 -20 6 6 2 12 9 12 14 0 6 -4 7 -10 4 -5 -3 -10 -1 -10 4 0 6 -13 11 -30
11 -23 0 -30 5 -30 19 0 21 -19 31 -56 31 -13 0 -24 4 -24 8 0 5 -18 15 -40
22 -37 12 -53 34 -30 42 16 5 0 43 -23 53 -12 6 -28 24 -36 40 -8 17 -17 32
-20 35 -12 10 -51 96 -51 112 0 9 -12 30 -26 45 -21 23 -23 29 -10 31 11 3 16
15 16 43 0 21 -4 39 -10 39 -5 0 -10 6 -10 13 0 8 -18 20 -40 27 -33 11 -41
19 -46 45 -3 18 -4 43 -1 56 2 15 5 7 6 -18 1 -36 4 -43 21 -43 18 0 20 7 20
58 0 80 -22 262 -32 262 -4 0 -8 -36 -8 -80 0 -64 -3 -80 -15 -80 -12 0 -15
16 -15 80 0 44 4 80 9 80 5 0 12 36 16 80 7 83 25 111 25 40 0 -22 5 -40 10
-40 6 0 10 37 10 90 0 50 4 98 9 108 5 9 12 25 15 35 3 10 10 15 16 12 6 -4 9
23 8 77 l-1 83 -7 -60 -7 -60 -1 57 c-1 31 3 60 8 63 6 3 10 19 10 34 0 35 19
91 31 91 8 0 4 178 -3 186 -2 1 -28 4 -58 6 -42 2 -55 7 -58 21 -3 15 6 17 77
17 74 0 81 2 81 20 0 19 -7 20 -99 20 -75 0 -101 -4 -111 -15 -19 -23 -30 -18
-30 14 0 16 -4 31 -10 33 -5 2 -10 23 -12 48 -3 40 0 46 25 58 18 9 27 21 27
38 0 25 24 56 52 67 10 3 15 13 11 25 -2 11 0 23 6 26 7 5 11 -4 11 -23 0 -17
4 -31 9 -31 6 0 8 10 6 21 -6 28 14 67 25 49 5 -8 8 -3 8 12 0 27 30 98 42 98
10 0 31 50 25 61 -4 5 -3 14 1 20 4 8 9 7 14 -2 7 -10 14 -9 34 4 14 9 36 17
48 17 32 1 99 32 132 64 21 19 40 26 67 26 47 0 52 17 7 23 -29 3 -28 4 7 4
66 0 72 2 78 23 3 13 14 20 29 20 28 0 83 39 56 40 -16 0 -18 11 -18 80 0 60
3 80 13 80 8 0 24 9 37 20 13 11 34 23 47 26 14 4 23 13 22 23 -1 9 -1 35 0
59 l1 42 40 0 c34 0 40 3 40 21 0 18 4 21 29 16 16 -3 36 0 47 7 32 22 73 25
84 7 8 -13 9 -14 10 -1 0 17 44 40 76 40 13 0 32 12 44 27 15 20 23 24 29 15
6 -10 11 -10 21 3 10 13 9 15 -6 15 -16 0 -16 2 -4 10 11 7 19 2 33 -20 11
-17 23 -30 28 -30z m-1005 -2774 c19 -20 18 -25 -6 -19 -11 3 -20 12 -20 19 0
18 8 18 26 0z m160 -161 c14 -13 13 -15 -5 -15 -12 0 -21 6 -21 15 0 8 3 15 6
15 3 0 12 -7 20 -15z m97 -62 c-7 -2 -21 -2 -30 0 -10 3 -4 5 12 5 17 0 24 -2
18 -5z m2094 -4107 c109 -35 172 -109 195 -233 10 -53 8 -68 -11 -129 -19 -62
-31 -79 -112 -164 -92 -97 -121 -140 -134 -198 -8 -41 -30 -52 -97 -52 -91 0
-98 5 -98 64 0 88 26 140 122 244 94 101 115 144 103 211 -4 20 -18 48 -33 64
-51 54 -171 25 -195 -48 -16 -46 -34 -54 -123 -55 -101 0 -109 7 -99 85 17
141 167 240 350 231 44 -2 103 -11 132 -20z m-1847 -101 c93 -17 145 -29 190
-45 86 -31 117 -40 132 -40 9 0 29 -7 44 -15 16 -8 37 -15 47 -15 9 0 25 -4
35 -9 50 -25 77 -33 162 -47 19 -4 43 -10 52 -15 9 -5 41 -9 72 -9 31 0 56 -5
58 -11 2 -6 25 -11 51 -12 27 0 50 -4 53 -9 3 -4 -2 -8 -10 -8 -9 0 -16 -4
-16 -10 0 -5 12 -10 26 -10 19 0 25 4 21 15 -4 8 -2 17 4 20 5 4 8 1 7 -7 -2
-9 7 -12 31 -10 33 2 33 2 28 -30 -3 -18 -3 -27 0 -20 3 7 25 12 59 12 34 0
53 -4 49 -10 -4 -6 8 -10 29 -10 48 0 60 -24 53 -114 -5 -69 -6 -72 -50 -111
-39 -36 -57 -44 -140 -63 -53 -12 -126 -22 -164 -22 -97 0 -315 30 -334 47
-10 8 -41 16 -70 18 -33 3 -58 10 -65 20 -7 9 -18 13 -28 9 -9 -3 -24 -3 -33
1 -10 5 -22 9 -28 10 -5 0 -18 5 -28 9 -10 5 -23 3 -32 -4 -10 -9 -15 -9 -15
-1 0 6 -18 14 -40 17 -22 4 -38 9 -36 13 2 3 -15 5 -37 3 -75 -4 -117 -3 -127
3 -14 9 -111 -5 -105 -15 2 -4 27 -5 55 -2 40 4 50 2 50 -11 0 -8 -6 -18 -12
-21 -7 -3 -4 -4 7 -2 76 16 85 17 85 7 0 -6 -8 -11 -17 -11 -17 -1 -17 -1 0
-11 9 -5 17 -14 17 -19 0 -8 -38 -7 -202 4 -21 2 -38 -1 -38 -5 0 -11 -58 -22
-107 -20 -31 1 -48 -4 -63 -19 -25 -25 -45 -25 -71 1 -15 15 -19 28 -14 48 5
23 0 33 -30 59 -35 31 -35 32 -35 116 0 55 5 94 15 112 8 16 15 55 15 87 0 73
24 111 89 139 42 19 99 25 316 36 11 0 54 -5 95 -13z m1082 -194 c-8 -4 -13
-11 -13 -15 3 -22 -3 -26 -38 -26 -42 0 -62 14 -35 24 8 3 12 2 9 -4 -3 -6 -2
-10 3 -10 6 0 12 6 15 14 5 13 24 20 62 24 6 1 4 -2 -3 -7z m-115 -27 c-3 -3
-12 -4 -19 -1 -8 3 -5 6 6 6 11 1 17 -2 13 -5z m773 -582 c70 -34 90 -137 37
-190 -33 -33 -108 -42 -152 -18 -41 22 -60 57 -58 106 3 56 27 88 82 104 57
18 49 18 91 -2z"/>
<path d="M5920 8237 c0 -18 -9 -26 -37 -36 -44 -16 -52 -26 -46 -52 6 -23 23
-25 23 -4 0 12 16 15 80 15 l80 0 0 36 c0 19 -6 42 -14 50 -8 8 -31 14 -50 14
-31 0 -36 -3 -36 -23z"/>
<path d="M5840 8065 c0 -11 11 -15 40 -15 29 0 40 4 40 15 0 11 -11 15 -40 15
-29 0 -40 -4 -40 -15z"/>
<path d="M8127 6906 c-10 -25 -9 -26 13 -26 11 0 20 7 20 16 0 8 -4 13 -9 10
-5 -4 -11 -1 -13 6 -3 7 -7 5 -11 -6z"/>
<path d="M6320 6250 c0 -5 9 -10 20 -10 11 0 20 5 20 10 0 6 -9 10 -20 10 -11
0 -20 -4 -20 -10z"/>
<path d="M6168 1523 c6 -2 18 -2 25 0 6 3 1 5 -13 5 -14 0 -19 -2 -12 -5z"/>
</g>
</svg>
