<?xml version="1.0" standalone="no"?>
<!DOCTYPE svg PUBLIC "-//W3C//DTD SVG 20010904//EN"
 "http://www.w3.org/TR/2001/REC-SVG-20010904/DTD/svg10.dtd">
<svg version="1.0" xmlns="http://www.w3.org/2000/svg"
 width="653.000000pt" height="577.000000pt" viewBox="0 0 653.000000 577.000000"
 preserveAspectRatio="xMidYMid meet">

<g transform="translate(0.000000,577.000000) scale(0.100000,-0.100000)"
fill="#000000" stroke="none">
<path d="M4059 5765 c-3 -2 -108 -10 -234 -17 -275 -15 -1543 -19 -1593 -4
-70 20 -341 -35 -468 -96 l-69 -33 4 -91 c5 -142 -31 -196 -160 -241 -41 -14
-82 -32 -92 -41 -13 -11 -50 -17 -148 -21 l-131 -6 -38 -45 c-21 -25 -36 -49
-33 -54 3 -5 10 0 16 10 14 25 27 33 49 29 10 -2 18 1 18 6 0 6 4 8 9 4 5 -3
29 3 53 12 31 13 68 18 138 17 164 -2 191 -5 244 -25 28 -12 59 -22 68 -24 10
-2 28 -10 42 -17 13 -7 50 -27 82 -44 33 -18 68 -41 78 -53 11 -12 25 -21 32
-21 7 0 16 -5 20 -12 5 -7 3 -8 -6 -3 -10 6 -12 0 -8 -23 2 -17 1 -29 -4 -26
-4 3 -8 -6 -8 -20 0 -13 -7 -32 -16 -40 -8 -9 -12 -20 -9 -26 3 -6 -4 -10 -16
-10 -18 0 -19 -2 -9 -15 11 -13 10 -14 -5 -9 -13 5 -16 4 -11 -4 4 -7 4 -17 0
-23 -4 -8 -9 -7 -15 2 -6 10 -22 5 -71 -21 -59 -32 -69 -34 -148 -32 -208 3
-325 1 -332 -6 -12 -12 111 -13 133 -2 12 7 26 7 37 2 26 -14 91 -24 72 -12
-13 8 -13 10 1 10 9 0 20 -7 23 -16 4 -9 11 -12 18 -7 24 14 83 10 106 -8 13
-10 18 -20 12 -24 -5 -3 -10 -14 -10 -23 0 -15 2 -15 10 -2 5 8 10 11 10 5 0
-5 -4 -16 -9 -23 -6 -10 -10 -10 -21 3 -10 12 -10 18 -1 29 10 12 8 17 -10 26
-17 10 -23 9 -30 -1 -7 -12 -9 -12 -9 0 0 9 -7 11 -22 7 -35 -11 -52 -14 -66
-15 -7 -1 -10 -6 -6 -13 4 -7 3 -8 -4 -4 -6 4 -9 13 -6 20 7 18 -58 34 -114
28 -32 -3 -42 -8 -38 -18 6 -16 -10 -19 -19 -4 -3 5 -12 7 -20 4 -8 -4 -13
-10 -10 -14 8 -12 60 -6 58 6 -1 7 23 10 60 10 48 -1 62 -4 62 -16 0 -8 -8
-16 -17 -18 -10 -2 -18 1 -18 7 0 6 7 8 15 5 8 -4 15 -2 15 4 0 19 -74 1 -96
-22 -11 -13 -27 -25 -35 -28 -20 -8 -49 10 -43 26 3 8 1 17 -5 21 -6 3 -11 -1
-11 -9 0 -20 -29 -21 -36 -1 -4 8 -10 15 -15 15 -14 0 35 -81 83 -136 55 -63
121 -171 147 -240 10 -27 39 -92 64 -144 61 -130 138 -371 177 -555 25 -116
31 -142 41 -174 7 -20 15 -45 20 -56 4 -11 15 -60 23 -110 9 -49 28 -155 42
-235 14 -80 33 -185 41 -235 51 -323 130 -710 172 -845 50 -161 106 -398 126
-530 8 -53 25 -121 35 -139 5 -11 10 -32 10 -48 0 -15 9 -55 20 -87 11 -33 36
-141 55 -241 19 -99 51 -237 71 -306 20 -68 39 -137 44 -154 13 -55 52 -135
65 -135 24 0 45 12 45 26 0 8 5 14 11 14 5 0 7 5 4 11 -4 6 -14 8 -22 5 -8 -3
-11 -1 -8 4 3 6 2 10 -3 10 -12 0 -34 49 -26 61 4 7 12 5 22 -3 29 -24 111
-60 122 -53 15 9 12 78 -4 109 -7 15 -29 42 -49 61 -28 28 -38 48 -52 111 -9
42 -15 90 -13 106 3 16 1 31 -4 34 -12 7 -10 72 2 79 6 4 15 -7 21 -24 6 -18
16 -28 22 -24 5 3 7 2 4 -4 -3 -5 -2 -25 2 -44 5 -19 16 -69 26 -111 9 -43 21
-75 26 -72 5 3 6 -1 4 -9 -8 -19 29 -49 57 -45 20 3 23 8 21 43 -5 100 -30
233 -52 279 -22 44 -23 49 -8 58 10 5 17 15 17 23 0 20 -73 234 -90 265 -14
25 -16 30 -18 62 -1 10 -7 17 -13 15 -13 -2 -49 103 -49 144 0 14 -11 59 -25
99 -14 40 -25 84 -25 97 0 24 -14 84 -56 239 -19 73 -24 114 -24 217 0 85 -5
145 -16 184 -11 38 -19 121 -23 239 -5 138 -10 185 -21 199 -8 10 -14 26 -12
36 2 9 -4 34 -13 55 -34 82 -91 471 -98 671 -1 24 -5 43 -9 43 -3 0 -4 10 0
22 3 13 1 19 -5 15 -14 -9 -23 16 -22 56 l1 32 14 -40 c13 -39 13 -39 9 -6 -3
18 -5 40 -5 48 0 8 -4 11 -10 8 -5 -3 -11 0 -11 7 -1 7 -5 0 -9 -17 l-8 -30
-2 38 c-8 102 -6 137 7 137 15 0 16 -9 4 -29 -6 -9 -6 -24 0 -38 6 -16 5 -22
-1 -18 -6 3 -10 2 -10 -4 0 -6 8 -15 18 -20 16 -8 17 -3 14 72 -2 45 -2 96 0
112 3 26 5 22 16 -25 7 -30 31 -95 53 -145 38 -86 41 -96 45 -210 9 -237 32
-422 81 -630 14 -60 25 -123 24 -140 0 -16 6 -50 14 -75 9 -27 18 -131 25
-265 9 -206 29 -381 49 -450 5 -16 15 -77 21 -135 7 -57 19 -118 26 -135 16
-39 40 -142 49 -215 4 -30 8 -63 10 -74 2 -10 23 -53 48 -95 37 -64 87 -168
117 -246 17 -44 29 -115 35 -210 8 -127 19 -183 50 -261 14 -34 25 -73 25 -86
l0 -23 -20 25 c-10 14 -22 21 -26 17 -4 -4 2 -17 13 -30 19 -21 70 -120 92
-180 6 -15 22 -32 37 -37 14 -6 24 -13 22 -18 -2 -4 -12 -24 -21 -44 -17 -38
-37 -58 -37 -37 0 8 -12 10 -40 5 -43 -7 -90 14 -90 40 0 8 -4 14 -8 14 -5 0
-17 18 -27 39 -23 53 -50 76 -108 96 -50 17 -77 15 -77 -6 0 -7 10 -9 29 -6
17 4 36 0 50 -9 11 -8 27 -12 34 -8 6 4 9 4 5 -1 -10 -10 11 -37 23 -29 5 3 9
-3 9 -13 0 -11 4 -23 9 -28 5 -6 11 -18 13 -28 1 -10 6 -18 11 -18 11 1 52
-43 49 -52 -1 -5 2 -6 8 -2 6 3 10 -3 10 -16 0 -18 -2 -19 -15 -9 -8 7 -21 10
-29 7 -8 -3 -17 1 -20 9 -3 8 1 14 9 14 8 0 15 4 15 10 0 11 -35 32 -42 24 -3
-2 -9 10 -13 28 -5 21 -9 27 -12 16 -6 -24 61 -163 83 -172 17 -7 17 -6 -1 14
-10 11 -15 23 -12 27 4 3 16 -6 28 -21 l22 -28 23 27 c13 15 25 32 27 38 2 6
11 8 20 4 10 -4 14 -12 10 -23 -8 -22 26 -15 41 9 8 13 8 20 -3 26 -16 11 -6
31 16 31 11 0 14 -7 10 -25 -3 -16 0 -24 7 -22 6 2 12 16 14 30 2 15 10 27 18
27 8 0 14 9 14 20 0 27 -24 25 -39 -3 -10 -19 -11 -17 -5 18 7 47 26 64 36 32
6 -21 6 -21 7 -1 1 26 49 42 109 36 33 -3 42 -8 40 -21 -2 -9 -11 -15 -21 -13
-9 2 -17 -2 -17 -9 0 -23 25 -94 37 -107 7 -7 13 -20 13 -28 0 -8 7 -14 16
-14 12 0 15 6 9 23 -4 12 -7 30 -8 40 -1 11 -7 17 -17 14 -13 -3 -15 2 -12 24
2 17 10 29 19 29 10 0 12 -6 8 -21 -7 -20 -5 -21 21 -15 16 4 32 13 36 19 3 6
9 -7 13 -29 11 -69 20 -97 33 -102 10 -3 12 9 6 57 -4 37 -3 61 3 61 5 0 8
-14 5 -30 -5 -34 17 -43 25 -10 3 12 18 27 33 35 l28 15 4 -54 c1 -30 0 -52
-4 -50 -3 2 -9 -2 -11 -8 -4 -10 -6 -10 -6 0 -1 15 -28 16 -33 0 -3 -9 -6 -9
-12 0 -5 8 3 16 23 23 17 6 31 18 31 26 0 10 -6 13 -16 9 -9 -3 -19 -6 -24 -6
-10 0 -20 -25 -27 -62 -4 -27 -3 -28 37 -26 22 1 43 5 46 10 3 4 9 6 14 3 16
-10 32 33 20 54 -14 27 -13 44 4 38 10 -4 15 5 18 31 5 41 0 65 -12 57 -4 -3
-7 3 -6 13 2 25 -28 21 -32 -4 -2 -12 -14 -26 -28 -33 -32 -14 -34 -14 -34 5
0 10 -6 14 -15 10 -8 -3 -15 -1 -15 4 0 6 7 10 15 10 8 0 15 5 15 10 0 6 13
10 28 10 17 0 38 10 52 25 13 14 29 25 36 25 8 0 11 6 8 14 -8 20 3 24 76 30
44 4 57 3 40 -3 -14 -5 -42 -9 -62 -10 -36 -1 -49 -13 -28 -26 17 -11 79 7
103 29 13 12 29 20 36 18 7 -2 21 4 32 14 10 9 19 14 19 10 0 -4 10 -1 23 6
12 7 27 11 34 10 18 -4 81 77 125 160 22 40 48 87 58 103 28 45 89 209 110
295 28 114 110 393 120 405 12 16 48 168 69 300 11 67 34 172 50 235 17 63 53
250 80 415 84 503 91 539 101 563 5 13 10 34 10 47 0 14 16 66 36 117 35 91
74 227 74 259 0 16 24 91 73 224 14 39 37 115 51 170 15 55 31 116 36 135 5
19 20 73 34 120 13 47 30 114 36 150 19 115 89 364 122 435 6 13 1 11 -14 -7
-26 -31 -41 -36 -32 -13 5 11 2 13 -10 9 -9 -3 -14 -10 -11 -14 6 -9 -25 -23
-33 -15 -3 3 0 5 6 5 7 0 12 9 12 21 0 11 5 17 10 14 6 -3 10 -1 10 5 0 7 7 9
16 6 9 -4 26 5 43 22 31 31 47 64 27 56 -7 -3 -18 2 -25 10 -10 12 -16 12 -39
1 -28 -14 -59 -27 -77 -30 -5 -1 -14 -3 -20 -4 -5 -1 -50 -2 -98 -1 -64 1 -87
-2 -82 -10 4 -6 13 -9 21 -6 8 3 14 1 14 -4 0 -6 -5 -10 -11 -10 -8 0 -9 -4 0
-13 6 -8 8 -17 5 -20 -4 -4 -16 11 -26 33 -16 32 -26 40 -47 40 -14 0 -49 11
-78 24 -28 14 -62 26 -75 28 -13 2 -29 11 -36 21 -7 9 -19 17 -27 17 -9 0 -12
6 -8 17 4 11 3 14 -5 9 -7 -4 -12 -1 -12 9 0 10 -5 13 -12 9 -7 -4 -8 -3 -4 4
8 14 -3 64 -14 57 -19 -12 -3 32 18 49 13 10 21 21 17 24 -3 3 -12 -3 -20 -14
-13 -17 -13 -16 -5 16 6 19 10 36 10 37 0 1 6 8 13 15 20 23 36 55 30 62 -10
10 -35 7 -29 -3 3 -5 -3 -20 -14 -32 -14 -16 -20 -19 -19 -9 3 30 -1 40 -18
41 -10 1 2 5 27 10 28 5 53 18 68 34 21 24 22 25 22 6 0 -12 -6 -21 -14 -21
-8 0 -18 -4 -21 -10 -3 -6 4 -9 18 -8 13 1 24 8 25 15 1 7 3 20 4 28 1 8 4 13
6 10 3 -3 11 0 18 6 11 9 19 6 36 -10 13 -12 32 -28 43 -37 20 -15 20 -15 -2
-9 -14 4 -23 2 -23 -4 0 -6 8 -11 18 -12 13 0 14 -2 2 -6 -8 -4 -21 -12 -28
-20 -8 -8 -23 -11 -36 -8 -17 5 -18 4 -6 -4 13 -9 13 -11 -2 -11 -10 0 -18 5
-18 11 0 5 -4 8 -9 5 -5 -3 -11 1 -14 8 -3 8 -2 17 4 20 5 2 4 3 -3 2 -7 -2
-12 -13 -10 -24 2 -15 -2 -22 -14 -22 -13 0 -54 -34 -54 -45 0 -6 53 4 58 11
4 4 -1 4 -10 1 -22 -8 -24 11 -2 20 9 3 19 1 23 -6 6 -9 15 -8 37 4 16 8 34
15 41 15 7 0 30 18 53 40 22 21 40 37 40 34 0 -2 17 7 37 21 21 14 45 25 55
25 9 0 20 5 23 10 3 6 30 10 58 10 46 0 58 -5 101 -40 26 -22 45 -40 40 -40
-4 0 1 -7 12 -16 10 -8 13 -12 5 -8 -11 5 -10 1 2 -17 9 -13 17 -31 17 -41 0
-17 40 -52 49 -43 6 7 -78 171 -95 186 -11 9 -14 8 -14 -5 0 -10 -5 -14 -10
-11 -7 4 -6 14 1 28 9 20 9 20 -4 5 -8 -10 -17 -15 -21 -11 -3 3 1 14 10 24
17 19 7 30 -33 35 -20 2 -23 -1 -17 -19 5 -18 4 -20 -7 -9 -19 17 -85 16 -93
-3 -3 -8 -17 -15 -31 -15 -15 0 -24 -4 -20 -10 3 -5 1 -10 -4 -10 -6 0 -11 5
-11 11 0 6 -5 7 -12 2 -7 -4 -17 -8 -23 -9 -5 -1 -21 -7 -35 -12 -18 -8 -20
-11 -7 -11 9 -1 17 -5 17 -11 0 -11 -11 -13 -33 -4 -20 7 -9 44 14 44 10 0 20
4 24 10 3 5 12 7 19 4 8 -3 17 -1 21 5 4 7 -1 8 -12 4 -17 -6 -17 -5 0 13 14
15 20 16 26 6 4 -8 15 -10 26 -6 13 6 16 4 10 -6 -5 -8 -3 -11 6 -8 8 3 13 12
11 20 -2 11 8 14 43 13 25 -1 48 2 52 8 4 6 -34 7 -110 2 -116 -7 -116 -7
-151 20 -42 32 -45 57 -16 115 11 22 20 52 20 67 -1 60 -87 222 -147 275 -15
13 -52 48 -82 80 -31 31 -66 61 -78 67 -21 11 -105 15 -114 6z m-994 -455 c3
-5 2 -10 -4 -10 -5 0 -13 5 -16 10 -3 6 -2 10 4 10 5 0 13 -4 16 -10z m50 1
c3 -6 -4 -9 -15 -8 -11 1 -20 5 -20 9 0 11 28 10 35 -1z m-99 -27 c-12 -8 -15
-14 -7 -14 10 0 11 -3 2 -14 -9 -11 -9 -15 1 -19 9 -4 7 -6 -4 -6 -23 -1 -34
19 -17 30 8 5 10 9 5 9 -5 0 -1 9 9 20 10 11 21 17 24 14 3 -3 -3 -12 -13 -20z
m-1412 -84 c-12 -12 -16 -12 -23 -2 -4 7 -15 10 -23 7 -9 -4 -19 -1 -24 6 -4
7 -3 10 3 6 6 -4 18 0 29 7 14 10 22 11 36 3 16 -10 16 -13 2 -27z m1427 -20
c7 0 10 -3 7 -6 -11 -10 -46 19 -40 34 4 12 7 10 13 -6 5 -12 14 -22 20 -22z
m-1354 2 c17 -5 34 -8 37 -5 3 4 6 -1 6 -11 0 -13 5 -16 23 -11 18 5 19 4 5
-5 -16 -10 -48 -4 -48 9 0 4 -14 8 -32 9 -18 2 -35 8 -39 14 -9 15 1 34 10 21
3 -5 20 -15 38 -21z m-431 11 c-3 -4 -12 -8 -19 -9 -40 -8 -58 -14 -70 -20 -6
-4 -3 2 8 14 12 13 33 21 54 21 19 1 31 -2 27 -6z m566 -73 c-2 -7 3 -10 12
-7 11 4 13 1 9 -11 -6 -15 -5 -15 10 -3 16 12 17 12 10 -5 -6 -17 -5 -17 10
-5 10 8 20 11 23 8 3 -3 -3 -10 -14 -16 -16 -8 -25 -6 -46 10 -14 11 -26 17
-26 13 0 -4 -9 1 -20 11 -11 10 -17 21 -14 26 7 12 49 -7 46 -21z m1376 -5 c2
-2 0 -11 -6 -21 -6 -11 -11 -13 -16 -5 -4 6 -1 11 6 12 7 0 4 4 -7 9 -29 12
-35 12 -35 -5 0 -22 38 -39 55 -25 20 16 35 -18 39 -88 5 -76 7 -82 16 -47 l8
30 1 -32 c1 -22 -4 -33 -13 -33 -14 0 -26 -29 -26 -67 0 -13 -4 -23 -10 -23
-5 0 -10 -7 -10 -15 0 -8 -5 -15 -11 -15 -5 0 -8 -3 -6 -7 3 -5 -16 -9 -41
-11 -68 -4 -103 -12 -96 -24 3 -5 -8 -2 -25 6 -38 20 -39 25 -3 19 l27 -5 -25
18 c-44 32 -50 40 -50 65 0 5 -4 8 -8 5 -8 -5 -11 11 -15 69 -1 19 -8 37 -16
40 -9 4 -12 -1 -8 -15 3 -11 1 -20 -4 -20 -5 0 -9 9 -9 21 0 15 -5 19 -15 15
-8 -3 -15 -2 -15 3 0 11 49 36 57 28 3 -4 -1 -7 -10 -7 -9 0 -17 -4 -17 -8 0
-4 9 -8 20 -8 13 0 20 7 20 19 0 10 5 28 12 40 7 12 13 31 15 41 6 35 21 43
82 42 33 -1 57 2 55 6 -5 8 76 1 84 -7z m1312 -6 c0 -5 -4 -9 -10 -9 -5 0 -10
7 -10 16 0 8 5 12 10 9 6 -3 10 -10 10 -16z m28 -9 c-7 -10 -21 -20 -33 -22
-14 -2 -19 -9 -17 -23 3 -19 3 -19 -15 -2 -16 15 -16 19 -3 27 8 5 22 10 31
10 9 0 19 7 23 15 3 8 10 15 16 15 6 0 6 -7 -2 -20z m264 -5 c0 -5 -5 -11 -11
-13 -6 -2 -11 4 -11 13 0 9 5 15 11 13 6 -2 11 -8 11 -13z m-69 -2 c-7 -2 -19
-2 -25 0 -7 3 -2 5 12 5 14 0 19 -2 13 -5z m-1453 -85 c0 -10 -4 -18 -10 -18
-12 0 -12 2 -15 55 l-2 40 13 -30 c7 -16 13 -38 14 -47z m-1342 35 c8 -8 11
-17 7 -21 -4 -4 -10 -1 -12 6 -3 6 -10 12 -18 12 -7 0 -19 7 -26 16 -12 15
-11 16 11 9 13 -4 30 -14 38 -22z m2646 2 c-22 -17 -34 -19 -34 -6 0 5 8 12
18 14 32 9 36 7 16 -8z m-2536 -11 c21 -6 21 -7 5 -21 -17 -14 -17 -14 0 -9
19 6 24 -9 4 -17 -19 -7 -38 18 -24 32 9 9 8 11 -5 6 -11 -4 -18 -2 -18 4 0
13 6 13 38 5z m508 -38 c10 -10 31 -14 69 -11 57 3 67 -3 38 -26 -16 -13 -17
-12 -4 4 16 21 13 21 -32 2 -27 -11 -37 -12 -40 -2 -4 9 -8 9 -14 1 -4 -6 -21
-14 -38 -16 -16 -3 -24 -3 -17 -1 7 3 10 9 6 14 -3 5 -9 7 -14 4 -5 -3 -8 3
-7 14 0 11 6 17 14 14 7 -3 10 -9 7 -14 -9 -15 26 -23 39 -9 10 10 8 12 -8 6
-11 -4 -16 -4 -12 0 4 4 2 13 -4 21 -15 18 -1 17 17 -1z m782 -2 c12 -8 20
-19 17 -24 -3 -4 9 -14 25 -22 26 -11 30 -17 25 -38 -4 -14 -11 -29 -16 -35
-7 -7 -8 -3 -3 10 6 16 5 18 -7 8 -7 -7 -18 -13 -24 -13 -6 0 -6 3 1 8 19 12
27 52 11 52 -8 0 -17 -10 -20 -22 -4 -12 -9 -19 -13 -15 -4 4 -15 -3 -25 -15
-11 -11 -19 -16 -19 -10 0 6 7 18 16 27 9 9 14 19 10 22 -3 4 -13 -2 -21 -13
-14 -19 -14 -18 -15 3 0 12 5 23 12 25 6 2 11 18 10 36 -1 36 4 39 36 16z
m-912 -19 c-5 -20 -3 -25 13 -25 11 0 23 5 26 10 9 15 22 12 22 -5 0 -8 -5
-15 -11 -14 -36 4 -54 -3 -59 -23 -4 -12 -9 -19 -13 -15 -10 10 -34 -13 -34
-32 1 -14 2 -15 13 0 7 8 25 24 40 34 33 21 208 50 217 35 8 -13 50 16 50 34
0 8 7 16 15 20 8 3 15 1 15 -4 0 -6 -6 -10 -12 -10 -9 0 -8 -4 2 -10 11 -7 11
-10 2 -10 -7 0 -10 -4 -7 -10 3 -6 -1 -7 -9 -4 -11 4 -16 0 -16 -11 0 -9 5
-13 10 -10 10 6 14 -17 10 -67 -1 -16 3 -28 9 -28 6 0 11 -7 11 -16 0 -8 4
-13 8 -10 5 3 9 -1 9 -8 0 -9 -6 -10 -23 -2 -12 6 -20 14 -17 19 2 4 -1 14 -7
22 -6 8 -8 20 -4 27 5 9 2 8 -10 -2 -11 -8 -14 -16 -7 -18 6 -2 11 -11 10 -20
0 -11 -2 -13 -6 -4 -3 8 -9 10 -16 3 -8 -6 -17 -4 -25 5 -10 11 -10 14 0 14 8
0 13 14 13 40 1 22 -3 40 -7 40 -4 0 -8 -13 -8 -28 0 -15 -6 -40 -12 -55 -12
-26 -16 -27 -53 -20 -22 4 -82 8 -133 8 -87 0 -106 5 -81 21 7 4 7 10 1 16 -7
7 -7 19 -1 35 10 26 5 43 -12 43 -6 0 -7 -9 -4 -20 5 -14 2 -20 -9 -20 -10 0
-16 9 -16 22 0 21 0 21 -14 2 -8 -10 -17 -16 -21 -12 -10 10 19 49 32 43 7 -2
13 1 13 7 0 9 3 9 12 0 15 -15 45 -16 54 -1 4 8 -1 9 -16 4 -20 -6 -21 -5 -9
8 8 8 17 13 21 10 5 -2 16 1 25 6 25 15 26 14 19 -14z m64 14 c0 -3 -12 -11
-27 -18 -23 -10 -25 -10 -14 2 9 12 9 16 -1 20 -7 2 -1 4 14 3 16 0 28 -4 28
-7z m1060 -9 c0 -5 7 -10 15 -10 8 0 15 -4 15 -9 0 -20 -16 -18 -40 5 -20 20
-22 24 -7 24 9 0 17 -4 17 -10z m724 -15 c2 -7 -2 -16 -10 -19 -7 -3 -13 0
-11 7 1 7 -6 11 -15 9 -20 -3 -25 14 -5 21 17 6 34 -2 41 -18z m-630 -2 c6
-14 -29 -28 -44 -18 -6 3 -10 -4 -9 -17 0 -13 3 -18 5 -12 3 7 27 3 72 -13 37
-14 75 -25 84 -25 9 1 20 -8 23 -19 4 -11 22 -27 41 -36 19 -9 34 -20 34 -24
0 -16 -281 -31 -297 -16 -5 6 9 74 24 112 5 13 3 16 -7 10 -7 -4 -11 -4 -8 1
2 5 11 23 18 40 10 23 20 31 37 30 12 0 25 -6 27 -13z m-771 -5 c18 -19 20
-46 5 -79 -19 -43 -36 -37 -32 12 2 22 6 44 9 50 9 14 -2 11 -19 -7 -9 -8 -16
-11 -16 -5 0 10 27 41 36 41 3 0 11 -6 17 -12z m685 -26 c2 -7 -1 -12 -7 -12
-6 0 -11 5 -11 11 0 5 -5 7 -10 4 -7 -4 -3 -14 10 -25 17 -15 19 -23 11 -38
-6 -11 -8 -22 -4 -25 3 -4 1 -13 -6 -20 -6 -8 -9 -21 -6 -29 3 -8 0 -20 -7
-26 -10 -8 -13 -3 -15 24 -1 19 2 34 6 34 5 0 6 11 3 25 -2 15 0 25 7 25 6 0
11 5 11 10 0 6 -7 10 -15 10 -11 0 -15 11 -15 36 0 35 1 36 22 22 12 -8 24
-20 26 -26z m138 22 c18 -15 18 -15 -3 -9 -13 4 -23 2 -23 -3 0 -6 11 -13 25
-16 14 -4 25 -11 25 -17 0 -6 -7 -8 -16 -5 -9 3 -27 9 -40 12 -25 6 -31 19
-14 29 6 4 8 11 5 16 -10 15 20 10 41 -7z m121 -12 c8 -8 12 -21 9 -28 -6 -17
17 -18 45 -4 13 7 19 7 19 0 0 -5 6 -10 14 -10 7 0 25 -9 38 -20 14 -10 29
-16 32 -12 4 4 6 1 4 -7 -1 -8 8 -20 21 -27 21 -11 21 -12 5 -16 -11 -2 -28 7
-40 19 -12 13 -27 23 -34 23 -7 0 -2 -9 11 -19 13 -11 21 -22 17 -26 -4 -4
-14 0 -23 9 -15 14 -30 20 -38 14 -1 -2 -13 7 -27 19 -13 13 -26 20 -29 17 -3
-3 1 -9 8 -13 10 -6 4 -11 -19 -16 -32 -7 -56 8 -44 27 3 4 1 8 -4 8 -18 0
-21 28 -5 42 14 11 15 10 9 -10 -4 -12 -3 -22 2 -22 16 0 23 31 11 46 -9 11
-14 11 -26 -2 -19 -19 -47 -14 -51 9 -3 14 4 17 38 15 23 -1 49 -8 57 -16z
m426 0 c-3 -7 -13 -10 -24 -7 -11 4 -19 2 -19 -6 0 -9 -4 -8 -15 1 -21 17 -12
25 28 25 24 0 33 -4 30 -13z m-378 -12 c3 -5 1 -10 -4 -10 -6 0 -11 5 -11 10
0 6 2 10 4 10 3 0 8 -4 11 -10z m300 0 c3 -6 -1 -7 -9 -4 -18 7 -21 14 -7 14
6 0 13 -4 16 -10z m125 -10 c0 -5 -7 -7 -15 -4 -8 4 -12 10 -9 15 6 11 24 2
24 -11z m-2026 -22 c-3 -4 -1 -8 5 -8 5 0 13 5 16 10 4 6 11 8 16 4 6 -3 5
-12 -3 -21 -11 -14 -10 -15 11 -8 16 5 21 4 17 -4 -4 -6 -18 -11 -32 -11 -15
0 -24 -6 -24 -15 0 -8 -4 -15 -10 -15 -5 0 -10 5 -10 11 0 5 -6 7 -12 4 -7 -4
-6 -1 3 7 10 8 14 20 9 33 -9 26 -1 53 11 34 4 -7 5 -17 3 -21z m2661 12 c3
-5 1 -10 -4 -10 -6 0 -11 5 -11 10 0 6 2 10 4 10 3 0 8 -4 11 -10z m-1175 -16
c0 -8 -4 -12 -10 -9 -5 3 -10 10 -10 16 0 5 5 9 10 9 6 0 10 -7 10 -16z
m-1516 -10 c8 -22 8 -26 -4 -19 -5 3 -10 1 -10 -5 0 -6 -5 -8 -12 -4 -8 5 -7
0 2 -11 13 -15 13 -18 1 -13 -17 5 -34 58 -20 58 5 0 9 -4 9 -10 0 -5 4 -10
10 -10 5 0 7 7 4 15 -4 8 -2 15 4 15 5 0 13 -7 16 -16z m-60 -30 c8 -22 9 -22
-19 -16 -14 2 -25 9 -25 14 0 6 7 7 16 4 8 -3 12 -2 9 4 -3 6 -2 10 3 10 6 0
13 -7 16 -16z m166 -4 c-8 -5 -26 -9 -40 -9 l-25 1 25 8 c14 4 32 8 40 9 13 1
13 0 0 -9z m1580 -34 c0 -1 -14 -3 -30 -3 -21 0 -27 3 -18 9 8 6 2 7 -17 3
-28 -6 -28 -5 -11 8 16 12 23 12 48 0 15 -8 28 -16 28 -17z m-2074 -40 c22
-23 17 -42 -5 -22 -19 17 -21 17 -43 1 l-23 -17 26 6 c19 4 29 1 33 -10 8 -20
-1 -34 -20 -34 -8 0 -12 5 -9 10 4 6 11 8 16 5 5 -4 9 -1 9 4 0 14 -6 14 -32
0 -13 -7 -18 -7 -14 -1 11 18 -26 32 -42 16 -16 -17 -52 -19 -52 -3 0 6 8 9
18 7 10 -3 23 1 30 8 7 7 20 10 29 7 12 -5 14 -3 8 7 -6 10 -4 12 8 7 11 -4
17 -1 17 8 0 19 27 19 46 1z m928 0 c7 3 19 -2 26 -11 8 -10 9 -15 1 -15 -6 0
-11 4 -11 9 0 5 -7 8 -16 7 -9 0 -18 5 -20 12 -1 7 0 8 2 3 3 -6 11 -8 18 -5z
m723 -10 c-3 -8 -16 -20 -28 -27 -22 -12 -22 -11 2 18 25 31 36 35 26 9z
m-337 -22 c0 -2 -7 -4 -15 -4 -8 0 -15 4 -15 10 0 5 7 7 15 4 8 -4 15 -8 15
-10z m-1647 -1 c-7 -2 -19 -2 -25 0 -7 3 -2 5 12 5 14 0 19 -2 13 -5z m1600
-10 c-7 -2 -21 -2 -30 0 -10 3 -4 5 12 5 17 0 24 -2 18 -5z m-1463 -54 c0 6 5
11 12 11 9 0 9 -3 0 -12 -8 -8 -9 -15 0 -25 6 -7 8 -16 4 -20 -3 -4 -13 2 -20
13 -8 10 -18 15 -22 11 -5 -4 -2 -12 6 -17 8 -5 11 -12 6 -17 -4 -4 -12 1 -18
11 -11 19 -11 19 -26 0 -14 -19 -15 -19 -7 1 4 11 8 29 10 40 1 11 3 21 4 23
0 1 12 -5 26 -14 15 -10 25 -12 25 -5z m-74 -26 c-3 -4 -6 -1 -6 6 0 7 -4 9
-10 6 -6 -4 -7 1 -3 11 6 15 7 15 15 -1 6 -9 7 -19 4 -22z m-123 -9 c-17 -13
-43 -19 -43 -10 0 21 14 32 36 28 23 -4 23 -5 7 -18z m3457 -24 c0 -11 -4 -20
-9 -20 -7 0 -8 17 -2 38 4 10 11 -2 11 -18z m-18 -32 c10 -10 13 -20 8 -23 -5
-3 -11 -1 -15 4 -4 7 -15 6 -33 -1 -15 -6 -42 -12 -60 -13 -17 -1 -32 -6 -31
-10 0 -5 -8 -12 -18 -16 -25 -10 -55 -11 -49 -1 3 5 -1 9 -8 9 -8 0 -13 -5
-12 -11 2 -6 1 -8 -1 -4 -2 4 -11 4 -19 1 -8 -3 -14 0 -14 7 0 6 5 8 10 5 6
-3 10 -1 10 4 0 6 17 11 38 11 40 0 71 14 59 27 -5 4 -12 1 -16 -6 -6 -9 -23
-12 -49 -9 -22 2 -38 0 -36 -4 3 -5 0 -8 -5 -8 -13 0 -13 3 -5 24 8 22 112 23
120 1 4 -8 14 -15 23 -15 11 0 12 3 4 8 -7 4 -9 13 -4 21 5 7 13 11 19 7 6 -3
13 -2 16 3 9 14 49 8 68 -11z m-655 -65 c-3 -10 -5 -2 -5 17 0 19 2 27 5 18 2
-10 2 -26 0 -35z m29 -11 c-15 -15 -16 -15 -16 2 0 9 6 27 12 39 l13 22 3 -24
c2 -13 -3 -31 -12 -39z m-2146 14 c6 -8 18 -12 26 -9 8 3 14 0 14 -7 0 -6 5
-8 10 -5 6 4 10 -24 10 -76 l0 -81 -20 23 c-10 13 -19 19 -20 12 0 -15 -41 -5
-60 16 -15 16 -40 78 -40 99 0 7 5 12 11 12 6 0 17 7 25 15 19 19 28 19 44 1z
m2410 -11 c7 -8 10 -15 6 -15 -17 0 -21 3 -18 12 2 6 -4 8 -13 5 -8 -4 -15 -2
-15 3 0 15 26 12 40 -5z m130 -27 c0 -5 -4 -8 -10 -8 -5 0 -10 5 -10 10 0 12
-27 13 -32 1 -1 -4 -12 -5 -23 0 -19 7 -19 8 2 8 12 1 25 5 28 11 6 10 45 -9
45 -22z m-483 -15 c11 -29 12 -38 1 -51 -11 -13 -14 -10 -19 24 l-6 39 -2 -45
c-1 -39 -4 -46 -21 -46 -18 0 -20 7 -20 57 0 54 1 57 26 57 20 0 29 -8 41 -35z
m-1936 15 c0 -10 2 -10 6 0 9 22 23 13 24 -15 l2 -28 4 28 c4 23 6 25 19 13 8
-8 11 -22 7 -32 -4 -11 -3 -15 4 -11 7 5 12 -21 15 -76 2 -45 3 -83 2 -85 -1
-2 -11 1 -22 7 -13 7 -18 17 -15 30 3 10 0 22 -6 25 -7 4 -11 -1 -11 -13 0
-31 -16 -25 -34 11 -18 35 -22 158 -6 158 6 0 10 -6 11 -12z m2569 2 c0 -5 -5
-10 -11 -10 -5 0 -7 5 -4 10 3 6 8 10 11 10 2 0 4 -4 4 -10z m-780 -17 c0 21
26 22 34 1 3 -9 6 -40 6 -70 0 -41 -4 -56 -16 -61 -9 -3 -20 0 -24 7 -5 9 -9
9 -14 1 -13 -21 -24 -2 -31 54 -5 40 -3 61 6 71 12 14 14 14 26 -2 12 -16 13
-16 13 -1z m-1580 -87 c0 -16 -6 -26 -15 -26 -8 0 -15 -2 -15 -4 0 -2 -3 -13
-6 -23 -5 -15 -4 -15 5 -3 9 13 11 12 12 -5 0 -11 2 -28 4 -37 6 -30 -26 -17
-38 15 -9 24 9 67 28 67 8 0 15 4 15 10 0 5 -7 7 -15 4 -8 -4 -15 -1 -15 5 0
6 7 11 15 11 8 0 15 4 15 8 0 4 -9 8 -19 8 -11 0 -19 -3 -19 -6 2 -25 -4 -50
-12 -50 -14 0 -12 14 7 59 l17 39 18 -23 c10 -13 18 -35 18 -49z m1477 55 c0
-1 6 -15 12 -32 12 -35 15 -118 5 -143 -9 -24 -24 -19 -24 7 0 16 -3 18 -9 8
-5 -7 -7 -23 -5 -35 2 -11 1 -15 -2 -7 -5 10 -8 10 -14 1 -6 -9 -13 -9 -28 -1
-25 13 -37 87 -27 161 l7 51 41 -5 c23 -3 43 -5 44 -5z m-160 -15 c-3 -8 -1
-16 4 -18 6 -2 14 -35 19 -73 7 -56 6 -73 -6 -86 -8 -8 -14 -19 -14 -23 0 -4
-7 -14 -16 -23 -14 -14 -16 -14 -21 6 -3 11 -10 18 -15 15 -5 -3 -7 -12 -4
-20 7 -17 -31 -34 -75 -34 -19 0 -29 5 -29 14 0 8 -5 18 -11 22 -8 4 -9 0 -4
-15 7 -24 -7 -28 -25 -6 -14 17 -3 86 28 174 22 64 55 88 78 56 12 -17 14 -17
14 -2 0 19 30 24 31 5 0 -10 2 -10 6 0 2 6 9 10 14 6 5 -3 9 0 9 5 0 6 5 11
11 11 6 0 9 -6 6 -14z m-1155 -50 c15 -31 15 -41 2 -103 -18 -89 -21 -96 -39
-89 -8 3 -17 1 -21 -5 -12 -20 -34 13 -34 52 0 21 -5 61 -11 90 -9 43 -9 54 4
67 13 12 19 13 31 3 13 -11 17 -10 22 3 10 25 28 18 46 -18z m149 -28 c1 -7 1
-24 1 -38 -1 -20 0 -21 5 -5 11 43 43 61 43 25 0 -25 16 -26 29 -2 9 16 11 16
25 -3 9 -11 16 -14 16 -7 0 18 30 15 37 -4 5 -12 7 -13 14 -3 6 10 11 7 18
-11 5 -14 10 -19 10 -12 1 6 7 12 15 12 8 0 16 3 19 8 2 4 3 2 1 -4 -1 -6 2
-16 8 -22 6 -6 14 -28 18 -49 l8 -38 1 38 c0 20 4 37 9 37 4 0 24 -16 45 -35
33 -30 37 -39 37 -82 0 -163 -35 -433 -59 -447 -3 -2 -5 19 -4 47 3 56 -2 54
-11 -4 -6 -35 -7 -35 -58 -38 -28 -1 -56 -5 -61 -8 -6 -4 -7 -1 -2 7 6 10 4
11 -11 5 -43 -18 -179 -12 -242 10 -7 2 -15 4 -18 4 -4 0 -13 12 -21 28 -13
24 -13 57 -4 234 6 114 15 219 21 234 5 14 10 39 10 55 0 19 10 36 31 54 32
28 68 34 70 14z m-311 -13 c0 -8 -2 -15 -4 -15 -2 0 -6 7 -10 15 -3 8 -1 15 4
15 6 0 10 -7 10 -15z m29 -122 c1 -39 -1 -43 -22 -43 -13 0 -29 -6 -36 -12
-11 -10 -13 -10 -7 0 4 6 2 12 -3 12 -16 0 -13 17 3 23 11 4 13 1 9 -10 -4
-10 -2 -14 5 -9 6 3 14 32 18 64 3 31 9 62 13 67 7 13 18 -38 20 -92z m-55 51
c9 -3 16 -10 16 -15 0 -4 -8 -5 -17 -2 -16 6 -16 5 -4 -10 8 -10 11 -20 7 -24
-3 -3 -6 -1 -6 6 0 7 -4 9 -10 6 -6 -4 -10 5 -10 19 0 28 1 29 24 20z m1916
-274 c0 -5 -5 -10 -11 -10 -5 0 -7 5 -4 10 3 6 8 10 11 10 2 0 4 -4 4 -10z
m19 -62 c1 -9 5 -19 11 -23 5 -3 6 -13 3 -22 -6 -15 -7 -14 -14 3 -6 15 -8 13
-9 -11 -2 -47 -10 -58 -93 -144 -43 -45 -76 -85 -73 -90 3 -4 -1 -17 -9 -27
-8 -10 -15 -26 -15 -35 0 -15 -58 -165 -96 -246 -25 -55 -83 -303 -99 -423 -8
-63 -26 -216 -40 -340 -46 -399 -55 -470 -75 -553 -18 -76 -41 -321 -39 -412
2 -103 -9 -304 -20 -342 -6 -23 -35 -76 -64 -118 -82 -121 -84 -124 -68 -134
10 -7 11 -16 3 -42 -6 -19 -18 -61 -27 -94 -9 -33 -20 -71 -25 -85 -4 -14 -16
-60 -25 -103 -19 -82 -15 -100 26 -110 14 -4 25 3 37 21 15 23 42 121 45 164
1 9 5 16 10 15 5 -1 16 17 24 41 18 51 33 55 33 8 0 -36 21 -62 44 -53 11 4
13 1 9 -10 -4 -10 -2 -14 4 -10 15 10 4 -30 -19 -69 -20 -34 -50 -48 -66 -32
-19 19 -39 0 -45 -44 -4 -29 -14 -50 -30 -63 -53 -44 -61 -91 -17 -107 17 -5
35 -19 41 -30 7 -12 7 -18 1 -14 -5 3 -25 0 -43 -8 -19 -7 -64 -16 -101 -19
l-67 -6 -7 34 c-3 19 -3 43 1 52 4 10 9 62 11 116 2 69 10 121 27 180 14 45
33 132 43 192 19 119 42 177 107 259 82 106 94 159 112 513 8 151 25 357 39
465 24 179 44 347 66 558 13 123 48 373 65 460 21 114 72 300 95 352 23 52
149 263 224 375 l49 72 28 -22 c15 -12 28 -30 28 -39z m-2244 14 c-8 -8 -25
10 -19 20 4 6 9 5 15 -3 4 -7 6 -15 4 -17z m2272 -12 c-1 -12 -5 -16 -10 -11
-5 5 -6 14 -3 20 11 16 15 13 13 -9z m-2247 -50 c0 -13 -1 -13 -10 0 -8 13
-10 12 -10 -2 0 -10 4 -18 9 -18 5 0 8 -11 7 -25 0 -14 -4 -25 -8 -25 -8 0
-10 10 -13 77 -2 37 0 40 11 25 7 -9 13 -24 14 -32z m1705 -2795 c-9 -20 -19
-35 -21 -32 -3 3 2 22 11 42 23 47 30 39 10 -10z m-15 -58 c0 -14 -44 -106
-50 -107 -3 0 -6 9 -6 19 0 11 3 18 6 16 9 -5 33 63 26 73 -3 5 1 9 9 9 8 0
15 -5 15 -10z m-587 -347 c-6 -38 -23 -53 -65 -58 -23 -2 -28 1 -28 18 0 12
-4 29 -9 39 -12 22 -3 36 33 48 20 6 38 6 53 -1 20 -9 22 -16 16 -46z m-167
42 c6 -4 14 -14 17 -22 4 -12 6 -11 6 3 2 35 21 16 21 -21 0 -48 -14 -62 -61
-62 -43 0 -55 12 -64 62 -6 33 -5 37 17 41 38 7 52 7 64 -1z m242 -53 c-2 -29
-7 -34 -30 -37 -21 -2 -28 1 -28 13 0 24 20 56 31 50 5 -4 9 2 9 11 0 13 3 15
11 7 6 -6 9 -26 7 -44z m-483 -6 l-7 -28 -9 24 c-12 31 -3 59 13 43 6 -6 8
-22 3 -39z m625 17 c0 -23 -4 -30 -20 -30 -11 0 -20 7 -20 15 0 8 7 15 15 15
8 0 15 7 15 15 0 8 2 15 5 15 3 0 5 -13 5 -30z m-490 -32 c0 -23 -36 -24 -44
-2 -10 25 -7 32 12 36 19 4 32 -9 32 -34z m-93 10 c-3 -8 -6 -5 -6 6 -1 11 2
17 5 13 3 -3 4 -12 1 -19z m513 14 c0 -14 -11 -21 -26 -15 -21 8 -17 23 6 23
11 0 20 -4 20 -8z m270 -42 c0 -5 -5 -10 -11 -10 -5 0 -7 5 -4 10 3 6 8 10 11
10 2 0 4 -4 4 -10z m-208 -166 c-21 -59 -51 -76 -162 -96 -83 -14 -163 -15
-287 -3 -74 7 -87 11 -120 41 l-38 33 39 -10 c21 -6 50 -7 65 -3 14 4 121 8
236 9 116 0 217 4 226 8 9 5 23 24 33 44 24 50 29 36 8 -23z m-242 -198 c0 -3
-4 -8 -10 -11 -5 -3 -10 -1 -10 4 0 6 5 11 10 11 6 0 10 -2 10 -4z m100 -6 c0
-5 -7 -7 -15 -4 -12 5 -15 -3 -16 -32 -2 -31 -3 -33 -6 -11 -3 20 -10 27 -26
27 -19 1 -18 3 8 15 36 16 55 18 55 5z m-99 -20 c5 0 9 -4 9 -9 0 -4 -11 -6
-25 -3 -14 2 -25 9 -25 14 0 6 7 7 16 4 9 -3 20 -6 25 -6z m209 -40 c0 -5 -5
-10 -11 -10 -5 0 -7 5 -4 10 3 6 8 10 11 10 2 0 4 -4 4 -10z m-560 -60 c0 -5
-10 -10 -22 -9 -22 0 -22 1 -3 9 11 5 21 9 23 9 1 1 2 -3 2 -9z"/>
<path d="M1580 5220 c0 -5 5 -10 11 -10 5 0 7 5 4 10 -3 6 -8 10 -11 10 -2 0
-4 -4 -4 -10z"/>
<path d="M3002 5103 c-7 -2 -17 -14 -23 -25 -11 -20 -10 -20 22 2 19 13 36 25
38 27 7 5 -22 2 -37 -4z"/>
<path d="M3187 5067 c-3 -9 -2 -19 4 -23 15 -9 18 -2 9 20 -6 17 -7 18 -13 3z"/>
<path d="M3312 4970 c-10 -17 -10 -24 1 -41 14 -20 14 -20 20 2 3 11 2 29 -1
40 -7 18 -8 18 -20 -1z m13 -20 c3 -5 1 -10 -4 -10 -6 0 -11 5 -11 10 0 6 2
10 4 10 3 0 8 -4 11 -10z"/>
<path d="M2381 4943 c-18 -19 -9 -26 14 -9 10 7 14 15 9 18 -5 3 -15 -1 -23
-9z"/>
<path d="M2651 4920 c-1 -8 -4 -26 -7 -40 -5 -22 -4 -23 6 -7 6 10 9 28 7 40
-2 12 -5 15 -6 7z"/>
<path d="M2671 4894 c0 -11 3 -14 6 -6 3 7 2 16 -1 19 -3 4 -6 -2 -5 -13z"/>
<path d="M3728 4943 c7 -3 16 -2 19 1 4 3 -2 6 -13 5 -11 0 -14 -3 -6 -6z"/>
<path d="M3856 4891 c-3 -5 0 -11 7 -14 8 -3 14 1 14 9 0 16 -13 19 -21 5z"/>
<path d="M3900 4880 c8 -5 20 -10 25 -10 6 0 3 5 -5 10 -8 5 -19 10 -25 10 -5
0 -3 -5 5 -10z"/>
<path d="M3797 4859 c7 -7 15 -10 18 -7 3 3 -2 9 -12 12 -14 6 -15 5 -6 -5z"/>
<path d="M1590 4681 c0 -5 5 -13 10 -16 6 -3 10 -2 10 4 0 5 -4 13 -10 16 -5
3 -10 2 -10 -4z"/>
<path d="M4815 4591 c-3 -6 -11 -9 -16 -6 -5 4 -9 2 -9 -3 0 -18 13 -21 27 -6
9 8 13 17 10 20 -3 3 -8 0 -12 -5z"/>
<path d="M2816 4205 c-3 -9 -6 -26 -5 -38 1 -14 4 -9 9 13 9 37 7 52 -4 25z"/>
<path d="M2678 3785 c6 -36 19 -40 14 -4 -2 16 -8 29 -12 29 -4 0 -5 -11 -2
-25z"/>
<path d="M4245 3795 c-15 -25 -25 -48 -22 -51 2 -3 17 16 31 42 14 26 24 49
22 51 -2 3 -16 -16 -31 -42z"/>
<path d="M1136 5092 c4 -20 0 -32 -12 -43 -16 -13 -17 -12 -12 13 4 20 1 25
-9 21 -19 -7 -10 -56 23 -131 13 -30 24 -61 24 -68 0 -8 18 -52 40 -100 29
-61 45 -84 55 -80 8 3 17 -3 20 -15 4 -10 11 -19 17 -19 7 0 7 4 -1 13 -6 8
-8 16 -6 19 3 3 -8 11 -24 18 -31 13 -33 40 -2 40 13 0 13 -2 2 -9 -11 -7 -8
-12 13 -26 14 -9 23 -22 20 -27 -4 -6 -1 -9 6 -6 19 6 24 28 7 28 -8 0 -20 7
-27 15 -10 12 -10 15 1 15 10 0 10 3 3 8 -6 4 -19 22 -28 40 -14 27 -20 31
-32 21 -12 -9 -13 -7 -10 17 2 16 1 22 -1 14 -11 -36 -22 -28 -37 27 -10 32
-24 75 -32 97 -15 39 -11 81 8 70 7 -4 7 -9 -1 -13 -6 -4 -7 -18 -3 -36 9 -31
32 -46 32 -20 0 9 -4 14 -8 11 -5 -3 -7 26 -4 64 3 59 2 70 -12 70 -12 0 -14
-7 -10 -28z m84 -292 c-13 -24 -16 -25 -24 -4 -3 8 -2 12 3 9 5 -3 12 -1 16 5
11 19 16 10 5 -10z m20 -15 c0 -8 -4 -15 -10 -15 -5 0 -7 7 -4 15 4 8 8 15 10
15 2 0 4 -7 4 -15z"/>
<path d="M4425 5050 c-3 -5 -1 -10 4 -10 6 0 11 5 11 10 0 6 -2 10 -4 10 -3 0
-8 -4 -11 -10z"/>
<path d="M4340 4960 c0 -5 5 -10 11 -10 5 0 7 5 4 10 -3 6 -8 10 -11 10 -2 0
-4 -4 -4 -10z"/>
<path d="M1174 4938 c3 -15 26 -23 26 -8 0 6 -4 9 -9 6 -5 -4 -12 -1 -14 4 -3
6 -4 5 -3 -2z"/>
<path d="M1170 4901 c0 -10 19 -25 25 -20 1 2 -3 10 -11 17 -8 7 -14 8 -14 3z"/>
<path d="M4935 4850 c3 -5 2 -10 -3 -10 -12 0 -4 -38 9 -46 15 -9 29 6 22 23
-6 15 -7 14 -15 -3 -6 -13 -7 -10 -3 14 2 18 0 32 -6 32 -6 0 -7 -4 -4 -10z"/>
<path d="M4943 4764 c-3 -8 -1 -20 5 -26 9 -9 5 -20 -14 -45 -18 -24 -22 -38
-16 -49 8 -15 11 -14 25 6 l15 22 5 -23 c2 -13 5 8 5 46 1 52 -1 66 -9 55 -9
-12 -10 -11 -6 8 6 25 -1 30 -10 6z m7 -89 c-7 -14 -17 -25 -22 -25 -5 0 -1
13 8 30 21 35 33 31 14 -5z"/>
<path d="M2172 3500 c0 -8 4 -26 8 -40 6 -20 8 -21 8 -5 0 11 -3 29 -8 40 -5
12 -8 14 -8 5z"/>
<path d="M2191 3399 c0 -19 4 -52 9 -74 7 -31 7 -24 3 30 -6 74 -13 101 -12
44z"/>
<path d="M2261 2974 c0 -11 3 -14 6 -6 3 7 2 16 -1 19 -3 4 -6 -2 -5 -13z"/>
<path d="M2271 2914 c0 -11 3 -14 6 -6 3 7 2 16 -1 19 -3 4 -6 -2 -5 -13z"/>
<path d="M2282 2865 c0 -11 3 -29 8 -40 11 -25 11 1 0 35 -6 20 -8 21 -8 5z"/>
<path d="M2300 2786 c0 -8 4 -17 9 -20 5 -4 7 3 4 14 -6 23 -13 26 -13 6z"/>
<path d="M2512 1375 c0 -11 3 -29 8 -40 11 -25 11 1 0 35 -6 20 -8 21 -8 5z"/>
<path d="M3350 239 c0 -5 5 -7 10 -4 6 3 10 8 10 11 0 2 -4 4 -10 4 -5 0 -10
-5 -10 -11z"/>
<path d="M3207 152 c4 -10 2 -13 -5 -8 -9 5 -10 -6 -5 -41 3 -26 6 -48 7 -49
1 -1 15 -4 31 -7 17 -4 25 -4 19 -1 -7 3 -9 14 -6 26 4 16 2 19 -8 13 -10 -6
-12 1 -8 33 5 33 3 41 -12 45 -14 3 -17 1 -13 -11z"/>
<path d="M3350 160 c-9 -6 -10 -10 -3 -10 6 0 15 5 18 10 8 12 4 12 -15 0z"/>
<path d="M3425 120 c3 -5 8 -10 11 -10 2 0 4 5 4 10 0 6 -5 10 -11 10 -5 0 -7
-4 -4 -10z"/>
<path d="M3140 86 c0 -8 4 -17 9 -20 5 -4 7 3 4 14 -6 23 -13 26 -13 6z"/>
</g>
</svg>
